<svg width="1187" height="219" viewBox="0 0 1187 219" fill="none" xmlns="http://www.w3.org/2000/svg">
<path fill-rule="evenodd" clip-rule="evenodd" d="M32.7001 163.499L32.6822 163.483C22.795 154.618 18.2599 141.614 18.2599 125.44L18.2599 90.4H0.879883L0.879883 49.16H18.2599L18.2599 18.14L70.0599 18.14L70.0599 49.16H97.3399V90.4H70.0599V125C70.0599 128.259 70.9225 130.284 72.1698 131.638C73.4685 132.911 75.1412 133.64 77.5999 133.64C81.7181 133.64 84.9214 132.625 87.4698 130.82L92.8695 126.995L106.71 166.162L103.473 168.32C99.3143 171.093 94.3666 172.983 88.7678 174.109C83.2687 175.361 77.5627 175.98 71.6599 175.98C55.6167 175.98 42.4131 172.04 32.7182 163.515L32.7001 163.499ZM87.7199 169.22C92.8532 168.193 97.1799 166.507 100.7 164.16L90.3599 134.9C88.982 135.876 87.4917 136.661 85.8891 137.255C83.3976 138.178 80.6345 138.64 77.5999 138.64C73.9332 138.64 70.9266 137.467 68.5799 135.12C66.2332 132.627 65.0599 129.253 65.0599 125V85.4H92.3399V54.16L65.0599 54.16L65.0599 23.14L23.2599 23.14L23.2599 54.16L5.87988 54.16L5.87988 85.4H23.2599L23.2599 125.44C23.2599 140.693 27.5132 152.133 36.0199 159.76C44.5266 167.24 56.4066 170.98 71.6599 170.98C77.2332 170.98 82.5866 170.393 87.7199 169.22ZM163.618 56.8268C164.906 55.9432 166.246 55.1276 167.638 54.38C175.558 49.98 184.505 47.78 194.478 47.78C203.718 47.78 212.078 49.6867 219.558 53.5C227.038 57.1667 232.905 62.8867 237.158 70.66C241.558 78.4333 243.758 88.48 243.758 100.8V169H201.958V107.62C201.958 99.1133 200.198 92.9534 196.678 89.14C193.305 85.18 188.538 83.2 182.378 83.2C177.978 83.2 173.945 84.2267 170.278 86.28C167.641 87.6514 165.421 89.5919 163.618 92.1015C163.098 92.8257 162.613 93.5972 162.162 94.4162C162.003 94.7049 161.849 94.9995 161.698 95.3C159.645 99.4067 158.618 104.76 158.618 111.36V169H116.818L116.818 5.76001L158.618 5.76001V60.8411C160.187 59.3754 161.854 58.0373 163.618 56.8268ZM163.618 50.9052C164.152 50.5914 164.693 50.2869 165.241 49.9918C173.969 45.1503 183.756 42.78 194.478 42.78C204.413 42.78 213.552 44.8329 221.795 49.0279C230.235 53.1741 236.82 59.6385 241.527 68.2283C246.471 76.9793 248.758 87.9443 248.758 100.8V174H196.958V107.62C196.958 99.614 195.269 94.9852 193.004 92.5314L192.937 92.4582L192.872 92.3823C190.626 89.7459 187.371 88.2 182.378 88.2C178.792 88.2 175.606 89.0271 172.721 90.6425L172.654 90.6804L172.585 90.7161C169.957 92.0825 167.807 94.263 166.17 97.5361C164.582 100.712 163.618 105.22 163.618 111.36V174H111.818L111.818 0.76001L163.618 0.76001V50.9052ZM337.822 174V167.293C337.063 167.887 336.273 168.455 335.453 168.995L335.442 169.002L335.43 169.01C328.056 173.812 318.645 175.98 307.622 175.98C297.546 175.98 288.682 174.277 281.226 170.632C273.891 167.046 268.085 162.055 264.014 155.61L263.989 155.57L263.964 155.529C260.091 149.129 258.182 141.991 258.182 134.24C258.182 126.036 260.248 118.7 264.575 112.468L264.583 112.457L264.591 112.445C269.122 105.997 275.85 101.356 284.336 98.3073C292.87 95.0946 303.562 93.6 316.202 93.6H333.831C333.071 91.6861 331.952 90.18 330.548 88.9763L330.475 88.9139L330.405 88.8488C327.802 86.4385 322.952 84.68 314.662 84.68C309.506 84.68 304.234 85.538 298.827 87.2952L298.773 87.3128L298.719 87.3291C293.35 88.9398 288.948 91.1723 285.411 93.9516L280.576 97.7507L261.787 59.8802L265.511 57.452C272.8 52.6982 281.393 49.1308 291.203 46.6758C301.12 44.0844 310.996 42.78 320.822 42.78C340.881 42.78 357.142 47.4097 368.905 57.3609C381.13 67.4257 386.762 82.9575 386.762 102.78V174H337.822ZM292.442 51.52C283.055 53.8667 274.989 57.24 268.242 61.64L282.322 90.02C283.623 88.9975 285.013 88.0486 286.491 87.1734C289.677 85.2867 293.274 83.7423 297.282 82.54C303.149 80.6334 308.942 79.68 314.662 79.68C323.462 79.68 329.842 81.5133 333.802 85.18C336.372 87.3833 338.138 90.19 339.1 93.6C339.535 95.1431 339.805 96.8098 339.911 98.6H316.202C303.882 98.6 293.835 100.067 286.062 103C278.289 105.787 272.495 109.893 268.682 115.32C265.015 120.6 263.182 126.907 263.182 134.24C263.182 141.133 264.869 147.367 268.242 152.94C271.762 158.513 276.822 162.913 283.422 166.14C290.022 169.367 298.089 170.98 307.622 170.98C318.035 170.98 326.395 168.927 332.702 164.82C334.591 163.575 336.297 162.161 337.822 160.576C339.793 158.528 341.46 156.196 342.822 153.58V169H381.762V102.78C381.762 83.86 376.409 70 365.702 61.2C355.142 52.2534 340.182 47.78 320.822 47.78C311.435 47.78 301.975 49.0267 292.442 51.52ZM321.922 120.38C315.175 120.38 310.409 121.48 307.622 123.68C304.982 125.88 303.662 128.813 303.662 132.48C303.662 136.147 305.055 139.08 307.842 141.28C310.629 143.48 314.442 144.58 319.282 144.58C323.829 144.58 327.935 143.48 331.602 141.28C332.828 140.525 333.948 139.65 334.962 138.652C335.619 138.007 336.231 137.31 336.798 136.562C338.08 134.874 339.134 132.927 339.962 130.72V120.38H321.922ZM334.962 125.38H321.922C315.5 125.38 312.198 126.472 310.769 127.567C309.388 128.739 308.662 130.213 308.662 132.48C308.662 134.675 309.4 136.139 310.94 137.356C312.572 138.644 315.161 139.58 319.282 139.58C322.971 139.58 326.171 138.702 329.004 137.008C331.549 135.435 333.555 133.106 334.962 129.765V125.38ZM452.966 58.2705C454.845 56.8159 456.845 55.5191 458.966 54.38C466.886 49.98 475.833 47.78 485.806 47.78C495.046 47.78 503.406 49.6867 510.886 53.5C518.366 57.1667 524.233 62.8867 528.486 70.66C532.886 78.4333 535.086 88.48 535.086 100.8V169H493.286V107.62C493.286 99.1133 491.526 92.9534 488.006 89.14C484.633 85.18 479.866 83.2 473.706 83.2C469.306 83.2 465.273 84.2267 461.606 86.28C457.94 88.1867 455.08 91.1933 453.026 95.3C453.006 95.3402 452.986 95.3806 452.966 95.421C452.686 95.9918 452.424 96.5864 452.182 97.2047C450.692 101.018 449.946 105.737 449.946 111.36V169L408.146 169V49.76L447.966 49.76V62.8137C449.525 61.1586 451.192 59.6442 452.966 58.2705ZM452.966 52.1347C454.129 51.3729 455.331 50.6583 456.57 49.9915C465.298 45.1501 475.084 42.78 485.806 42.78C495.741 42.78 504.88 44.8329 513.123 49.0279C521.563 53.1743 528.148 59.639 532.856 68.2293C537.8 76.9802 540.086 87.9447 540.086 100.8V174H488.286V107.62C488.286 99.614 486.597 94.9852 484.332 92.5314L484.265 92.4582L484.2 92.3823C481.954 89.7459 478.699 88.2 473.706 88.2C470.12 88.2 466.934 89.0271 464.049 90.6425L463.982 90.6804L463.913 90.7161C461.286 92.0825 459.135 94.263 457.499 97.5361C455.91 100.712 454.946 105.22 454.946 111.36V174L403.146 174V44.76L452.966 44.76V52.1347ZM603.13 91.2813L645.81 49.76L695.31 49.76L645.91 100.773L699.49 169H648.89L615.532 127.202L603.13 139.831V169H561.33V5.76001L603.13 5.76001V91.2813ZM608.13 79.4413V0.76001L556.33 0.76001V174H608.13V141.875L615.145 134.732L646.483 174H709.774L652.538 101.116L707.112 44.76L643.779 44.76L608.13 79.4413ZM850.314 173.84C846.207 184.107 841.44 192.1 836.014 197.82C830.734 203.687 824.794 207.793 818.194 210.14C811.74 212.487 804.554 213.66 796.634 213.66C790.327 213.66 783.947 212.633 777.494 210.58C771.187 208.673 766.054 206.107 762.094 202.88L776.614 173.62C777.887 174.744 779.257 175.734 780.722 176.59C782.125 177.409 783.615 178.106 785.194 178.68C788.567 180 791.867 180.66 795.094 180.66C799.64 180.66 803.234 179.633 805.874 177.58C806.643 176.982 807.381 176.284 808.088 175.486C809.024 174.43 809.906 173.199 810.733 171.794C810.969 171.392 811.201 170.977 811.428 170.547L760.334 49.76L803.234 49.76L832.51 122.618L861.974 49.76L901.794 49.76L850.314 173.84ZM832.525 109.245L806.613 44.76L752.79 44.76L805.847 170.188C804.831 171.737 803.803 172.856 802.804 173.633C801.31 174.795 798.924 175.66 795.094 175.66C792.562 175.66 789.879 175.144 787.016 174.024L786.959 174.002L786.903 173.981C784.244 173.014 781.931 171.643 779.922 169.871L775.033 165.557L755.84 204.234L758.935 206.756C763.517 210.489 769.269 213.313 776.013 215.356C782.908 217.546 789.788 218.66 796.634 218.66C805.042 218.66 812.812 217.415 819.886 214.845C827.339 212.192 833.937 207.589 839.687 201.213C845.661 194.9 850.704 186.321 854.945 175.726C854.948 175.716 854.952 175.707 854.956 175.697L909.281 44.76L858.602 44.76L832.525 109.245ZM906.231 143.921L906.207 143.882C899.965 133.638 896.897 122.015 896.897 109.16C896.897 96.3059 899.965 84.7416 906.226 74.6282L906.241 74.604L906.256 74.58C912.618 64.5603 921.292 56.7761 932.172 51.2528C943.096 45.5594 955.486 42.78 969.217 42.78C982.943 42.78 995.329 45.5575 1006.25 51.2466C1017.28 56.7691 1025.98 64.566 1032.21 74.6282C1038.47 84.7416 1041.54 96.3059 1041.54 109.16C1041.54 122.015 1038.47 133.638 1032.23 143.882L1032.22 143.897L1032.21 143.912C1025.98 153.969 1017.29 161.833 1006.27 167.501C995.347 173.199 982.953 175.98 969.217 175.98C955.475 175.98 943.075 173.196 932.144 167.493C921.28 161.825 912.614 153.974 906.256 143.96L906.231 143.921ZM934.457 55.7C924.337 60.8333 916.344 68.02 910.477 77.26C904.757 86.5 901.897 97.1333 901.897 109.16C901.897 121.187 904.757 131.893 910.477 141.28C916.344 150.52 924.337 157.78 934.457 163.06C944.577 168.34 956.164 170.98 969.217 170.98C982.27 170.98 993.857 168.34 1003.98 163.06C1014.24 157.78 1022.24 150.52 1027.96 141.28C1033.68 131.893 1036.54 121.187 1036.54 109.16C1036.54 97.1333 1033.68 86.5 1027.96 77.26C1022.24 68.02 1014.24 60.8333 1003.98 55.7C993.857 50.42 982.27 47.78 969.217 47.78C956.164 47.78 944.577 50.42 934.457 55.7ZM979.441 130.15L979.478 130.129C982.382 128.454 984.741 125.979 986.54 122.514C988.314 118.951 989.297 114.552 989.297 109.16C989.297 103.738 988.304 99.5409 986.59 96.3411L986.572 96.3092L986.556 96.2771C984.755 92.7961 982.39 90.311 979.478 88.6309L979.441 88.6095L979.404 88.5875C976.613 86.9128 973.273 86 969.217 86C965.357 86 961.988 86.8907 958.994 88.6087C956.204 90.2917 953.798 92.8101 951.829 96.3691C950.124 99.5653 949.137 103.754 949.137 109.16C949.137 114.522 950.108 118.902 951.864 122.454C953.826 125.98 956.221 128.478 958.994 130.151C961.988 131.869 965.357 132.76 969.217 132.76C973.273 132.76 976.613 131.847 979.404 130.173L979.441 130.15ZM956.457 134.46C952.79 132.26 949.784 129.033 947.437 124.78C945.237 120.38 944.137 115.173 944.137 109.16C944.137 103.147 945.237 98.0867 947.437 93.98C949.784 89.7267 952.79 86.5 956.457 84.3C960.27 82.1 964.524 81 969.217 81C974.057 81 978.31 82.1 981.977 84.3C985.79 86.5 988.797 89.7267 990.997 93.98C993.197 98.0867 994.297 103.147 994.297 109.16C994.297 115.173 993.197 120.38 990.997 124.78C988.797 129.033 985.79 132.26 981.977 134.46C978.31 136.66 974.057 137.76 969.217 137.76C964.524 137.76 960.27 136.66 956.457 134.46ZM1077.66 169.741L1077.64 169.732C1069.03 165.426 1062.3 158.724 1057.45 149.834L1057.43 149.787L1057.4 149.739C1052.67 140.612 1050.46 129.421 1050.46 116.42V44.76L1102.26 44.76V109.6C1102.26 118.437 1103.91 123.529 1106.09 126.12C1108.48 128.783 1111.91 130.34 1117.06 130.34C1120.36 130.34 1123.24 129.584 1125.82 128.127C1128.17 126.799 1130.24 124.622 1131.93 121.256C1133.55 117.897 1134.5 113.289 1134.5 107.18V44.76L1186.3 44.76V174L1136.48 174V167.329C1135.62 167.896 1134.73 168.437 1133.82 168.951L1133.79 168.969L1133.76 168.986C1125.23 173.653 1115.97 175.98 1106.06 175.98C1095.71 175.98 1086.21 173.936 1077.68 169.749L1077.66 169.741ZM1136.48 161.178C1138.27 159.776 1139.94 158.228 1141.48 156.532V169L1181.3 169V49.76L1139.5 49.76V107.18C1139.5 113.046 1138.69 117.985 1137.07 121.998C1136.88 122.455 1136.69 122.901 1136.48 123.335C1136.46 123.377 1136.44 123.418 1136.42 123.46C1134.37 127.567 1131.65 130.573 1128.28 132.48C1124.91 134.387 1121.17 135.34 1117.06 135.34C1110.75 135.34 1105.84 133.36 1102.32 129.4C1098.95 125.44 1097.26 118.84 1097.26 109.6V49.76L1055.46 49.76V116.42C1055.46 128.887 1057.59 139.227 1061.84 147.44C1066.24 155.507 1072.25 161.447 1079.88 165.26C1087.65 169.073 1096.38 170.98 1106.06 170.98C1115.15 170.98 1123.59 168.853 1131.36 164.6C1133.17 163.578 1134.87 162.437 1136.48 161.178Z" fill="black"/>
</svg>
