<svg width="1200" height="620" viewBox="0 0 1200 620" fill="none" xmlns="http://www.w3.org/2000/svg">
<g clip-path="url(#clip0_330:2014)">
<rect width="1200" height="620" fill="#E0E7F9"/>
<path d="M-53 235.5C187 235.5 59.0509 504.685 208.9 518C348 530.36 323.6 60.1488 470.8 68.4998C618 76.8509 593.004 452.553 732.7 447.5C872.396 442.447 894.7 203.5 994.6 203.5C1094.5 203.5 1078.5 393.5 1256.5 393.5" stroke="#BFD2F0" stroke-width="77" stroke-linecap="round" stroke-linejoin="round"/>
<path d="M-53 235.5C187 235.5 59.0509 504.685 208.9 518C348 530.36 323.6 60.1488 470.8 68.4998C618 76.8509 593.004 452.553 732.7 447.5C872.396 442.447 894.7 203.5 994.6 203.5C1094.5 203.5 1078.5 393.5 1256.5 393.5" stroke="#3A6EC0" stroke-width="6" stroke-linecap="round" stroke-linejoin="round" stroke-dasharray="10 20"/>
<path d="M217.838 297C196.388 297 179 304.672 179 314.134C179 323.597 196.388 331.269 217.838 331.269C239.288 331.269 256.676 323.597 256.676 314.134C256.676 304.672 239.288 297 217.838 297V297Z" fill="#31373D"/>
<path d="M254.097 315.923C254.277 315.338 254.391 314.744 254.391 314.134C254.391 310.895 251.741 308.021 247.538 305.684V312.03C250.012 313.195 252.221 314.498 254.097 315.923ZM188.138 305.684C183.935 308.021 181.285 310.895 181.285 314.134C181.285 314.744 181.399 315.338 181.579 315.923C183.455 314.498 185.664 313.195 188.138 312.03V305.684V305.684Z" fill="#7D8B93"/>
<path d="M217.838 299.285C206.949 299.285 195.289 301.706 188.138 305.684V312.03C195.901 308.379 206.339 306.138 217.838 306.138C229.336 306.138 239.774 308.379 247.537 312.03V305.684C240.387 301.706 228.726 299.285 217.838 299.285V299.285Z" fill="#CCD6DD"/>
<path d="M635.474 477.533C634.656 472.894 633.046 468.591 630.806 464.743C631.909 477.05 626.543 484.418 619.278 482.709C612.472 481.106 614.867 469.76 614.291 464.649C613.311 455.986 611.023 446.274 594.018 440.864C602.669 452.097 598.305 460.794 592.389 462.319C585.826 464.012 578.631 458.848 579.096 448.327C572.757 454.98 574.139 464.053 577.417 469.501C580.836 475.181 579.289 480.673 573.672 482.243C567.393 484 562.525 477.154 563.7 464.671C559.211 472.341 557.314 481.583 558.978 491.021C562.703 512.145 582.846 526.25 603.97 522.525C625.094 518.8 639.199 498.657 635.474 477.533Z" fill="#F4900C"/>
<path d="M622.595 491.401C624.151 498.281 618.536 502.076 615.024 501.34C609.951 500.279 610.648 496.797 608.238 490.262C605.829 483.728 600.316 479.868 593.016 479.028C600.59 492.383 593.648 499.022 589.69 500.687C585.647 502.388 581.246 502.174 579.173 493.246C575.122 499.004 573.273 506.308 574.592 513.786C574.738 514.614 574.933 515.42 575.148 516.217C583.259 521.825 593.491 524.373 603.97 522.525C614.45 520.677 623.194 514.783 628.897 506.739C628.826 505.917 628.735 505.093 628.589 504.265C627.721 499.345 625.594 494.966 622.595 491.401Z" fill="#FFCC4D"/>
<path d="M455.992 202H494.83V256.83H455.992V202Z" fill="#E1E8ED"/>
<path d="M455.992 229.415H494.83V256.83H455.992V229.415Z" fill="#99AAB5"/>
<path d="M455.992 256.83C464.824 256.83 471.984 244.556 471.984 229.415C471.984 214.274 464.824 202 455.992 202C447.16 202 440 214.274 440 229.415C440 244.556 447.16 256.83 455.992 256.83Z" fill="#CCD6DD"/>
<path d="M494.83 256.83C504.924 256.83 513.107 244.556 513.107 229.415C513.107 214.274 504.924 202 494.83 202C484.736 202 476.553 214.274 476.553 229.415C476.553 244.556 484.736 256.83 494.83 256.83Z" fill="#E1E8ED"/>
<path d="M513.107 229.415V256.83C513.107 277.391 522.245 284.245 522.245 284.245H481.123C481.123 284.245 471.984 277.391 471.984 256.83V227.13L513.107 229.415Z" fill="#E1E8ED"/>
<path d="M513.107 229.415C513.107 218.166 508.586 208.511 502.125 204.285H465.866C470.954 209.503 474.269 218.714 474.269 229.415V261.399C475.249 274.382 480.398 280.361 481.998 281.96H520.075C517.372 278.524 513.107 270.882 513.107 256.83V229.415Z" fill="#F5F8FA"/>
<path d="M453.707 240.838C457.492 240.838 460.561 235.724 460.561 229.415C460.561 223.106 457.492 217.992 453.707 217.992C449.922 217.992 446.854 223.106 446.854 229.415C446.854 235.724 449.922 240.838 453.707 240.838Z" fill="#99AAB5"/>
<path d="M447.425 224.869C448.48 220.825 450.893 217.992 453.707 217.992C457.493 217.992 460.561 223.107 460.561 229.415C460.561 230.822 460.388 232.156 460.109 233.402C458.626 228.631 453.55 225.081 447.425 224.869V224.869Z" fill="#66757F"/>
<path d="M477.695 231.699H474.269V229.415H477.695C478.324 229.415 478.838 229.929 478.838 230.557C478.838 231.185 478.324 231.699 477.695 231.699ZM486.834 231.699H482.265C481.636 231.699 481.122 231.185 481.122 230.557C481.122 229.929 481.636 229.415 482.265 229.415H486.834C487.462 229.415 487.976 229.929 487.976 230.557C487.976 231.185 487.462 231.699 486.834 231.699ZM495.972 231.699H491.403C490.775 231.699 490.261 231.185 490.261 230.557C490.261 229.929 490.775 229.415 491.403 229.415H495.972C496.6 229.415 497.114 229.929 497.114 230.557C497.114 231.185 496.6 231.699 495.972 231.699ZM505.11 231.699H500.541C499.913 231.699 499.399 231.185 499.399 230.557C499.399 229.929 499.913 229.415 500.541 229.415H505.11C505.739 229.415 506.253 229.929 506.253 230.557C506.253 231.185 505.739 231.699 505.11 231.699ZM513.106 231.699H509.68C509.051 231.699 508.537 231.185 508.537 230.557C508.537 229.929 509.051 229.415 509.68 229.415H513.106V231.699ZM477.695 259.114H474.269V256.83H477.695C478.324 256.83 478.838 257.344 478.838 257.972C478.838 258.6 478.324 259.114 477.695 259.114ZM486.834 259.114H482.265C481.636 259.114 481.122 258.6 481.122 257.972C481.122 257.344 481.636 256.83 482.265 256.83H486.834C487.462 256.83 487.976 257.344 487.976 257.972C487.976 258.6 487.462 259.114 486.834 259.114ZM495.972 259.114H491.403C490.775 259.114 490.261 258.6 490.261 257.972C490.261 257.344 490.775 256.83 491.403 256.83H495.972C496.6 256.83 497.114 257.344 497.114 257.972C497.114 258.6 496.6 259.114 495.972 259.114ZM505.11 259.114H500.541C499.913 259.114 499.399 258.6 499.399 257.972C499.399 257.344 499.913 256.83 500.541 256.83H505.11C505.739 256.83 506.253 257.344 506.253 257.972C506.253 258.6 505.739 259.114 505.11 259.114ZM513.106 259.114H509.68C509.051 259.114 508.537 258.6 508.537 257.972C508.537 257.344 509.051 256.83 509.68 256.83H513.106V259.114Z" fill="#CCD6DD"/>
<g opacity="0.5">
<path d="M203.992 588H242.83V642.83H203.992V588Z" fill="#E1E8ED"/>
<path d="M203.992 615.415H242.83V642.83H203.992V615.415Z" fill="#99AAB5"/>
<path d="M203.992 642.83C212.824 642.83 219.984 630.556 219.984 615.415C219.984 600.274 212.824 588 203.992 588C195.16 588 188 600.274 188 615.415C188 630.556 195.16 642.83 203.992 642.83Z" fill="#CCD6DD"/>
<path d="M242.83 642.83C252.924 642.83 261.107 630.556 261.107 615.415C261.107 600.274 252.924 588 242.83 588C232.736 588 224.553 600.274 224.553 615.415C224.553 630.556 232.736 642.83 242.83 642.83Z" fill="#E1E8ED"/>
<path d="M261.107 615.415V642.83C261.107 663.391 270.245 670.245 270.245 670.245H229.123C229.123 670.245 219.984 663.391 219.984 642.83V613.13L261.107 615.415Z" fill="#E1E8ED"/>
<path d="M261.107 615.415C261.107 604.166 256.586 594.511 250.125 590.285H213.866C218.954 595.503 222.269 604.714 222.269 615.415V647.399C223.249 660.382 228.398 666.361 229.998 667.96H268.075C265.372 664.524 261.107 656.882 261.107 642.83V615.415Z" fill="#F5F8FA"/>
<path d="M201.707 626.838C205.492 626.838 208.561 621.724 208.561 615.415C208.561 609.106 205.492 603.992 201.707 603.992C197.922 603.992 194.854 609.106 194.854 615.415C194.854 621.724 197.922 626.838 201.707 626.838Z" fill="#99AAB5"/>
<path d="M195.425 610.869C196.48 606.825 198.893 603.992 201.707 603.992C205.493 603.992 208.561 609.107 208.561 615.415C208.561 616.822 208.388 618.156 208.109 619.402C206.626 614.631 201.55 611.081 195.425 610.869V610.869Z" fill="#66757F"/>
<path d="M225.695 617.699H222.269V615.415H225.695C226.324 615.415 226.838 615.929 226.838 616.557C226.838 617.185 226.324 617.699 225.695 617.699ZM234.834 617.699H230.265C229.636 617.699 229.122 617.185 229.122 616.557C229.122 615.929 229.636 615.415 230.265 615.415H234.834C235.462 615.415 235.976 615.929 235.976 616.557C235.976 617.185 235.462 617.699 234.834 617.699ZM243.972 617.699H239.403C238.775 617.699 238.261 617.185 238.261 616.557C238.261 615.929 238.775 615.415 239.403 615.415H243.972C244.6 615.415 245.114 615.929 245.114 616.557C245.114 617.185 244.6 617.699 243.972 617.699ZM253.11 617.699H248.541C247.913 617.699 247.399 617.185 247.399 616.557C247.399 615.929 247.913 615.415 248.541 615.415H253.11C253.739 615.415 254.253 615.929 254.253 616.557C254.253 617.185 253.739 617.699 253.11 617.699ZM261.106 617.699H257.68C257.051 617.699 256.537 617.185 256.537 616.557C256.537 615.929 257.051 615.415 257.68 615.415H261.106V617.699ZM225.695 645.114H222.269V642.83H225.695C226.324 642.83 226.838 643.344 226.838 643.972C226.838 644.6 226.324 645.114 225.695 645.114ZM234.834 645.114H230.265C229.636 645.114 229.122 644.6 229.122 643.972C229.122 643.344 229.636 642.83 230.265 642.83H234.834C235.462 642.83 235.976 643.344 235.976 643.972C235.976 644.6 235.462 645.114 234.834 645.114ZM243.972 645.114H239.403C238.775 645.114 238.261 644.6 238.261 643.972C238.261 643.344 238.775 642.83 239.403 642.83H243.972C244.6 642.83 245.114 643.344 245.114 643.972C245.114 644.6 244.6 645.114 243.972 645.114ZM253.11 645.114H248.541C247.913 645.114 247.399 644.6 247.399 643.972C247.399 643.344 247.913 642.83 248.541 642.83H253.11C253.739 642.83 254.253 643.344 254.253 643.972C254.253 644.6 253.739 645.114 253.11 645.114ZM261.106 645.114H257.68C257.051 645.114 256.537 644.6 256.537 643.972C256.537 643.344 257.051 642.83 257.68 642.83H261.106V645.114Z" fill="#CCD6DD"/>
</g>
<path d="M1126.66 485.269C1126.66 471.009 1116.58 462.451 1103.98 462.451C1091.38 462.451 1081.51 471.009 1081.51 485.269C1081.51 493.219 1081.28 500.085 1090.41 503.294V509.513C1090.41 511.875 1092.62 513.79 1094.98 513.79C1097.35 513.79 1099.55 511.875 1099.55 509.513V505.012V509.513C1099.55 511.875 1101.76 513.79 1104.12 513.79C1106.49 513.79 1108.69 511.875 1108.69 509.513V505.012V509.513C1108.69 511.875 1110.9 513.79 1113.26 513.79C1115.62 513.79 1117.83 511.875 1117.83 509.513V503.294C1126.97 500.085 1126.66 493.219 1126.66 485.269V485.269Z" fill="#CCD6DD"/>
<path d="M1094.14 489.548C1098.07 489.548 1101.27 486.356 1101.27 482.418C1101.27 478.48 1098.07 475.288 1094.14 475.288C1090.2 475.288 1087.01 478.48 1087.01 482.418C1087.01 486.356 1090.2 489.548 1094.14 489.548Z" fill="#292F33"/>
<path d="M1121.23 482.418C1121.23 486.357 1121.23 489.548 1114.1 489.548C1106.97 489.548 1106.97 486.357 1106.97 482.418C1106.97 478.479 1110.16 475.288 1114.1 475.288C1118.04 475.288 1121.23 478.479 1121.23 482.418V482.418ZM1106.83 495.339C1106.48 494.467 1105.4 493.827 1104.12 493.827C1102.84 493.827 1101.76 494.467 1101.4 495.339C1100.5 495.591 1099.84 496.411 1099.84 497.391C1099.84 498.572 1100.8 499.529 1101.98 499.529C1102.91 499.529 1103.7 498.929 1103.99 498.095C1104.03 498.095 1104.07 498.104 1104.12 498.104C1104.16 498.104 1104.2 498.095 1104.25 498.095C1104.54 498.929 1105.33 499.529 1106.26 499.529C1107.44 499.529 1108.4 498.572 1108.4 497.391C1108.4 496.411 1107.73 495.595 1106.83 495.339Z" fill="#292F33"/>
<path d="M1088.13 508.684C1088.13 507.845 1088.3 507.055 1088.58 506.312C1086.33 505.291 1084.39 503.84 1082.86 501.812C1080.33 504.025 1077.92 506.098 1075.71 507.969C1074.39 506.993 1072.77 506.399 1071 506.399C1066.58 506.399 1063 509.977 1063 514.395C1063 518.457 1066.04 521.772 1069.96 522.286C1070.47 526.209 1073.79 529.245 1077.85 529.245C1082.27 529.245 1085.85 525.667 1085.85 521.249C1085.85 519.478 1085.25 517.856 1084.28 516.531C1085.65 514.918 1087.13 513.196 1088.69 511.391C1088.33 510.559 1088.13 509.645 1088.13 508.684ZM1126.68 473.314C1128.7 471.557 1130.63 469.898 1132.42 468.372C1133.72 469.293 1135.3 469.846 1137.02 469.846C1141.44 469.846 1145.02 466.266 1145.02 461.85C1145.02 457.868 1142.1 454.592 1138.29 453.982C1137.79 450.05 1134.46 447 1130.4 447C1125.98 447 1122.4 450.58 1122.4 454.996C1122.4 456.767 1122.99 458.389 1123.97 459.714C1122.61 461.313 1121.15 463.015 1119.6 464.801C1122.57 466.791 1125 469.588 1126.68 473.314ZM1071 469.846C1072.77 469.846 1074.39 469.252 1075.71 468.276C1077.54 469.828 1079.51 471.518 1081.57 473.312C1083.25 469.585 1085.67 466.789 1088.64 464.799C1087.09 463.015 1085.64 461.311 1084.28 459.714C1085.25 458.389 1085.85 456.767 1085.85 454.996C1085.85 450.58 1082.27 447 1077.85 447C1073.79 447 1070.47 450.038 1069.96 453.959C1066.04 454.473 1063 457.788 1063 461.85C1063 466.266 1066.58 469.846 1071 469.846ZM1137.02 506.399C1135.3 506.399 1133.72 506.952 1132.42 507.873C1130.24 506.024 1127.87 503.987 1125.39 501.812C1123.85 503.843 1121.91 505.291 1119.67 506.315C1119.94 507.055 1120.11 507.845 1120.11 508.684C1120.11 509.645 1119.91 510.559 1119.55 511.391C1121.12 513.196 1122.6 514.918 1123.97 516.531C1122.99 517.856 1122.4 519.478 1122.4 521.249C1122.4 525.667 1125.98 529.245 1130.4 529.245C1134.46 529.245 1137.79 526.197 1138.29 522.263C1142.1 521.653 1145.02 518.377 1145.02 514.395C1145.02 509.977 1141.44 506.399 1137.02 506.399V506.399Z" fill="#AAB8C2"/>
<path d="M1048.53 120.732L1090.73 78.5293C1098.1 71.1569 1110.06 71.1569 1117.43 78.5293C1124.8 85.9016 1124.8 97.8568 1117.43 105.229L1075.23 147.432C1067.86 154.805 1055.9 154.805 1048.53 147.432C1041.16 140.058 1041.16 128.105 1048.53 120.732Z" fill="#D99E82"/>
<path d="M1051.89 132.971C1053.11 132.971 1054.11 131.977 1054.11 130.75C1054.11 129.524 1053.11 128.53 1051.89 128.53C1050.66 128.53 1049.66 129.524 1049.66 130.75C1049.66 131.977 1050.66 132.971 1051.89 132.971Z" fill="#C1694F"/>
<path d="M1058.55 139.633C1059.78 139.633 1060.77 138.638 1060.77 137.412C1060.77 136.186 1059.78 135.191 1058.55 135.191C1057.32 135.191 1056.33 136.186 1056.33 137.412C1056.33 138.638 1057.32 139.633 1058.55 139.633Z" fill="#C1694F"/>
<path d="M1065.21 146.297C1066.44 146.297 1067.43 145.303 1067.43 144.076C1067.43 142.85 1066.44 141.856 1065.21 141.856C1063.98 141.856 1062.99 142.85 1062.99 144.076C1062.99 145.303 1063.98 146.297 1065.21 146.297Z" fill="#C1694F"/>
<path d="M1058.55 126.307C1059.78 126.307 1060.77 125.313 1060.77 124.086C1060.77 122.86 1059.78 121.865 1058.55 121.865C1057.32 121.865 1056.33 122.86 1056.33 124.086C1056.33 125.313 1057.32 126.307 1058.55 126.307Z" fill="#C1694F"/>
<path d="M1065.21 132.971C1066.44 132.971 1067.43 131.977 1067.43 130.75C1067.43 129.524 1066.44 128.53 1065.21 128.53C1063.98 128.53 1062.99 129.524 1062.99 130.75C1062.99 131.977 1063.98 132.971 1065.21 132.971Z" fill="#C1694F"/>
<path d="M1071.88 139.633C1073.1 139.633 1074.1 138.638 1074.1 137.412C1074.1 136.186 1073.1 135.191 1071.88 135.191C1070.65 135.191 1069.65 136.186 1069.65 137.412C1069.65 138.638 1070.65 139.633 1071.88 139.633Z" fill="#C1694F"/>
<path d="M1091.88 88.2822C1092.03 87.0645 1093.13 86.1963 1094.35 86.3425C1095.57 86.4888 1096.44 87.5945 1096.29 88.8122C1096.14 90.0299 1095.04 90.898 1093.82 90.7518C1092.6 90.6079 1091.74 89.5021 1091.88 88.2822Z" fill="#C1694F"/>
<path d="M1100.75 97.4319C1101.98 97.4319 1102.97 96.4377 1102.97 95.2113C1102.97 93.9849 1101.98 92.9907 1100.75 92.9907C1099.52 92.9907 1098.53 93.9849 1098.53 95.2113C1098.53 96.4377 1099.52 97.4319 1100.75 97.4319Z" fill="#C1694F"/>
<path d="M1107.41 104.096C1108.64 104.096 1109.63 103.102 1109.63 101.875C1109.63 100.649 1108.64 99.6548 1107.41 99.6548C1106.19 99.6548 1105.19 100.649 1105.19 101.875C1105.19 103.102 1106.19 104.096 1107.41 104.096Z" fill="#C1694F"/>
<path d="M1100.75 84.106C1101.98 84.106 1102.97 83.1118 1102.97 81.8853C1102.97 80.6589 1101.98 79.6647 1100.75 79.6647C1099.52 79.6647 1098.53 80.6589 1098.53 81.8853C1098.53 83.1118 1099.52 84.106 1100.75 84.106Z" fill="#C1694F"/>
<path d="M1107.41 90.7701C1108.64 90.7701 1109.63 89.7759 1109.63 88.5495C1109.63 87.3231 1108.64 86.3289 1107.41 86.3289C1106.19 86.3289 1105.19 87.3231 1105.19 88.5495C1105.19 89.7759 1106.19 90.7701 1107.41 90.7701Z" fill="#C1694F"/>
<path d="M1114.08 97.4319C1115.3 97.4319 1116.3 96.4377 1116.3 95.2113C1116.3 93.9849 1115.3 92.9907 1114.08 92.9907C1112.85 92.9907 1111.86 93.9849 1111.86 95.2113C1111.86 96.4377 1112.85 97.4319 1114.08 97.4319Z" fill="#C1694F"/>
<path d="M1057.44 111.87L1081.87 87.4368L1108.52 114.091L1084.09 138.522L1057.44 111.87Z" fill="#EABAA7"/>
<path d="M1064.25 113.947C1063.68 113.947 1063.11 113.73 1062.68 113.296C1061.81 112.428 1061.81 111.023 1062.68 110.155L1080.3 92.5292C1081.17 91.661 1082.57 91.661 1083.44 92.5292C1084.31 93.3973 1084.31 94.8023 1083.44 95.6705L1065.82 113.296C1065.38 113.732 1064.81 113.947 1064.25 113.947V113.947Z" fill="#F7DED5"/>
<path d="M765.254 254.277C770.301 254.277 774.392 250.185 774.392 245.138C774.392 240.091 770.301 236 765.254 236C760.207 236 756.116 240.091 756.116 245.138C756.116 250.185 760.207 254.277 765.254 254.277Z" fill="#FFE8B6"/>
<path d="M765.254 251.992C769.039 251.992 772.108 248.924 772.108 245.138C772.108 241.353 769.039 238.285 765.254 238.285C761.469 238.285 758.4 241.353 758.4 245.138C758.4 248.924 761.469 251.992 765.254 251.992Z" fill="#FFD983"/>
<path d="M773.25 237.142L763.639 243.523L766.869 246.754L773.25 237.142ZM757.258 253.134L763.639 243.523L766.869 246.754L757.258 253.134Z" fill="#FFCC4D"/>
<path d="M773.25 253.134L766.869 243.523L763.639 246.753L773.25 253.134Z" fill="#FFCC4D"/>
<path d="M757.258 237.142L766.869 243.523L763.639 246.754L757.258 237.142Z" fill="#FFCC4D"/>
<path d="M751.547 266.842C751.22 266.842 750.896 266.702 750.669 266.431C750.265 265.946 750.331 265.224 750.813 264.82C763.856 253.952 764.11 245.216 764.11 245.129C764.116 244.501 764.587 243.909 765.259 243.996C765.889 244.003 766.396 244.51 766.396 245.138C766.396 245.534 766.237 254.946 752.278 266.577C752.065 266.755 751.805 266.842 751.547 266.842Z" fill="#C1694F"/>
<path d="M710.027 316.913L700.333 307.22C698.556 305.442 698.556 302.534 700.333 300.759L743.95 257.142C745.728 255.364 748.636 255.364 750.411 257.142L760.105 266.835C761.882 268.612 761.882 271.521 760.105 273.296L716.487 316.913C714.712 318.688 711.804 318.688 710.027 316.913V316.913Z" fill="#DD2E44"/>
<path d="M740.72 260.372L756.874 276.524L752.028 281.372L735.874 265.218L740.72 260.372ZM708.413 292.68L724.565 308.832L719.722 313.68L703.565 297.528L708.413 292.68Z" fill="#FFCC4D"/>
<path d="M750.413 257.141L753.644 260.372L747.183 266.833L743.95 263.602L750.413 257.141ZM706.796 300.759L710.027 303.989L703.566 310.45L700.335 307.219L706.796 300.759ZM739.105 268.45L742.335 271.681L714.875 299.141L711.642 295.911L739.105 268.45Z" fill="#EA596E"/>
<path d="M743.95 263.602L747.183 266.833L742.335 271.681L739.104 268.448L743.95 263.602ZM711.644 295.911L714.874 299.144L710.026 303.987L706.796 300.759L711.644 295.911Z" fill="#FFD983"/>
<path d="M415.537 507.913C397.015 511.179 384.648 528.842 387.913 547.364C391.179 565.885 408.842 578.253 427.364 574.987C445.885 571.721 458.253 554.058 454.987 535.537C451.721 517.015 434.058 504.648 415.537 507.913ZM445.671 537.179C446.514 541.958 445.894 546.649 444.168 550.825L404.873 523.31C408.204 520.258 412.4 518.072 417.179 517.229C430.557 514.87 443.313 523.804 445.671 537.179ZM397.229 545.721C396.387 540.942 397.006 536.251 398.735 532.077L438.029 559.591C434.696 562.642 430.5 564.828 425.721 565.671C412.345 568.03 399.588 559.098 397.229 545.721Z" fill="#DD2E44"/>
<g opacity="0.35">
<path d="M1011.54 -36.0866C993.015 -32.8207 980.648 -15.158 983.913 3.36354C987.179 21.8851 1004.84 34.2527 1023.36 30.9868C1041.89 27.721 1054.25 10.0583 1050.99 -8.46331C1047.72 -26.9849 1030.06 -39.3524 1011.54 -36.0866ZM1041.67 -6.82069C1042.51 -2.04171 1041.89 2.64928 1040.17 6.82469L1000.87 -20.6896C1004.2 -23.7417 1008.4 -25.9282 1013.18 -26.7708C1026.56 -29.1296 1039.31 -20.1962 1041.67 -6.82069ZM993.229 1.72092C992.387 -3.05806 993.006 -7.74905 994.735 -11.9229L1034.03 15.5914C1030.7 18.6419 1026.5 20.8284 1021.72 21.6711C1008.35 24.0295 995.588 15.0983 993.229 1.72092Z" fill="#DD2E44"/>
</g>
<path d="M934.929 512.543C933.003 531.251 916.274 544.856 897.566 542.929C878.857 541.002 865.253 524.274 867.179 505.565C869.106 486.857 885.835 473.252 904.543 475.179C923.251 477.106 936.856 493.834 934.929 512.543Z" fill="#DD2E44"/>
<path d="M927.014 515.531C926.8 517.609 924.94 519.122 922.862 518.908L877.696 514.256C875.618 514.042 874.106 512.182 874.32 510.105L875.095 502.577C875.309 500.499 877.169 498.987 879.246 499.201L924.413 503.852C926.49 504.066 928.003 505.926 927.789 508.004L927.014 515.531Z" fill="white"/>
<path d="M685.991 119.525C682.559 118.919 681.486 116.16 683.603 113.392L722.559 62.5231C724.678 59.7557 727.266 60.2121 728.31 63.5372L747.518 124.664C748.565 127.988 746.611 130.213 743.179 129.608L685.991 119.525Z" fill="#FFCC4D"/>
<path d="M712.068 112.506C712.506 110.022 714.884 108.357 717.37 108.796C719.853 109.233 721.518 111.611 721.08 114.095C720.642 116.58 718.262 118.245 715.781 117.808C713.295 117.369 711.63 114.991 712.068 112.506V112.506ZM718.425 78.4845C718.852 76.0587 720.908 74.8727 723.276 75.2902C725.588 75.6979 727.161 77.5833 726.743 79.9513L722.822 102.194C722.404 104.562 720.281 105.795 717.969 105.388C715.601 104.97 714.075 103.151 714.503 100.727L718.425 78.4845V78.4845Z" fill="#231F20"/>
<g opacity="0.5">
<path d="M786.514 646.029C804.113 643.625 816.432 627.41 814.028 609.811C811.625 592.211 795.41 579.893 777.81 582.296C760.211 584.699 747.892 600.915 750.296 618.514C752.699 636.113 768.914 648.432 786.514 646.029Z" fill="#F4900C"/>
<path d="M777.969 621.605L772.398 634.638C772.966 634.91 773.541 635.169 774.131 635.392C777.559 636.696 781.352 637.186 785.234 636.656C789.129 636.124 792.657 634.627 795.617 632.443C796.125 632.068 796.61 631.666 797.085 631.252L788.213 620.191C786.932 621.479 785.26 622.393 783.322 622.658C781.393 622.921 779.544 622.494 777.969 621.605V621.605ZM777.583 606.936L768.714 595.879C768.206 596.254 767.719 596.656 767.247 597.072C761.919 601.737 758.881 608.799 759.589 616.292C759.617 616.605 759.625 616.917 759.668 617.234C759.711 617.551 759.787 617.854 759.843 618.165L773.888 616.247C773.812 615.94 773.71 615.643 773.667 615.323C773.199 611.894 774.841 608.678 777.583 606.936V606.936ZM790.657 613.002C790.701 613.323 790.683 613.637 790.691 613.952L804.737 612.034C804.707 611.719 804.699 611.407 804.656 611.091C804.613 610.774 804.537 610.471 804.481 610.16C803.154 602.753 798.337 596.766 791.957 593.7C791.389 593.428 790.813 593.17 790.223 592.944L784.651 605.977C787.752 606.924 790.189 609.578 790.657 613.002V613.002Z" fill="white"/>
<path d="M782.674 617.911C784.744 617.629 786.194 615.721 785.911 613.65C785.628 611.58 783.72 610.131 781.65 610.413C779.579 610.696 778.13 612.604 778.413 614.674C778.696 616.745 780.603 618.194 782.674 617.911Z" fill="white"/>
</g>
<path d="M464.96 385.22L488.108 362.074C489.954 360.228 489.954 357.233 488.108 355.386C486.259 353.538 483.266 353.538 481.42 355.386L458.272 378.532L435.127 355.386C433.281 353.538 430.284 353.538 428.439 355.386C426.591 357.233 426.591 360.228 428.439 362.074L451.585 385.22L428.386 408.42C426.538 410.268 426.538 413.261 428.386 415.108C429.31 416.031 430.52 416.493 431.731 416.493C432.942 416.493 434.153 416.031 435.076 415.108L458.274 391.907L481.42 415.053C482.343 415.976 483.554 416.438 484.765 416.438C485.975 416.438 487.184 415.976 488.11 415.053C489.956 413.204 489.956 410.211 488.11 408.365L464.96 385.22Z" fill="#DD2E44"/>
<path d="M999.956 371.047C996.952 370.152 995.241 366.992 996.136 363.988L998.294 356.735C999.189 353.73 1002.35 352.019 1005.35 352.914C1006.45 353.228 1016.77 354.339 1018.93 347.086C1020.01 343.459 1017.46 338.753 1012.02 337.134C1007.6 335.817 1003.69 338.602 1003.15 340.415C1002.26 343.42 999.097 345.13 996.093 344.236C993.088 343.341 991.378 340.181 992.272 337.177C994.905 328.332 1005.43 323.329 1015.26 326.254C1029.77 330.572 1031.98 343.038 1029.27 352.137C1027.03 359.653 1021.2 364.169 1012.83 364.85C1011.01 365.001 1009.27 364.949 1007.73 364.809L1007.02 367.226C1006.12 370.23 1002.96 371.941 999.956 371.047Z" fill="#BE1931"/>
<path d="M995.639 385.553C998.643 386.447 1001.8 384.736 1002.7 381.732C1003.59 378.728 1001.88 375.567 998.877 374.673C995.873 373.779 992.713 375.49 991.818 378.494C990.924 381.498 992.635 384.659 995.639 385.553Z" fill="#BE1931"/>
<path d="M968.44 377.457C971.444 378.351 974.605 376.641 975.499 373.637C976.393 370.632 974.682 367.472 971.678 366.578C968.674 365.683 965.513 367.394 964.619 370.398C963.725 373.403 965.436 376.563 968.44 377.457Z" fill="#BE1931"/>
<path d="M979.817 359.13C978.923 362.135 975.762 363.845 972.758 362.951C969.753 362.057 968.043 358.897 968.937 355.892L979.191 321.44C980.086 318.435 983.246 316.725 986.25 317.619C989.255 318.514 990.965 321.674 990.071 324.678L979.817 359.13Z" fill="#BE1931"/>
<path d="M875.664 132.481C878.739 131.873 880.74 128.888 880.132 125.813C879.525 122.738 876.54 120.737 873.465 121.344C870.389 121.952 868.389 124.937 868.996 128.012C869.603 131.087 872.589 133.088 875.664 132.481Z" fill="#BE1931"/>
<path d="M877.2 110.964C877.808 114.04 875.807 117.025 872.732 117.632C869.656 118.24 866.672 116.239 866.064 113.164L859.1 77.8988C858.493 74.8233 860.493 71.8384 863.569 71.231C866.644 70.6237 869.629 72.6241 870.236 75.6996L877.2 110.964Z" fill="#BE1931"/>
<path d="M901.648 127.349C904.723 126.742 906.724 123.757 906.117 120.681C905.509 117.606 902.524 115.606 899.449 116.213C896.374 116.82 894.373 119.805 894.98 122.881C895.588 125.956 898.573 127.956 901.648 127.349Z" fill="#BE1931"/>
<path d="M903.185 105.833C903.792 108.909 901.79 111.894 898.716 112.501C895.643 113.108 892.656 111.108 892.049 108.032L885.084 72.7674C884.477 69.692 886.479 66.7067 889.553 66.0997C892.627 65.4927 895.613 67.4928 896.221 70.5682L903.185 105.833Z" fill="#BE1931"/>
<g opacity="0.35">
<path d="M173.431 31.0689C176.518 30.5246 178.579 27.5809 178.035 24.4939C177.49 21.407 174.547 19.3457 171.46 19.89C168.373 20.4344 166.311 23.3781 166.856 26.4651C167.4 29.552 170.344 31.6133 173.431 31.0689Z" fill="#BE1931"/>
<path d="M175.407 9.58859C175.951 12.6758 173.89 15.6192 170.803 16.1636C167.716 16.708 164.772 14.647 164.228 11.5597L157.986 -23.8401C157.442 -26.9274 159.503 -29.8708 162.59 -30.4151C165.677 -30.9595 168.621 -28.8985 169.165 -25.8113L175.407 9.58859Z" fill="#BE1931"/>
<path d="M199.515 26.4696C202.602 25.9253 204.663 22.9815 204.119 19.8946C203.574 16.8076 200.631 14.7464 197.544 15.2907C194.457 15.835 192.395 18.7787 192.94 21.8657C193.484 24.9527 196.428 27.0139 199.515 26.4696Z" fill="#BE1931"/>
<path d="M201.49 4.98935C202.035 8.07659 199.972 11.0203 196.887 11.5644C193.801 12.1084 190.856 10.0477 190.312 6.96049L184.07 -28.4394C183.525 -31.5266 185.588 -34.4703 188.673 -35.0144C191.759 -35.5584 194.704 -33.4977 195.248 -30.4105L201.49 4.98935Z" fill="#BE1931"/>
</g>
<path d="M256.397 120.535C253.309 119.991 251.248 117.048 251.793 113.96L253.107 106.508C253.651 103.421 256.595 101.36 259.682 101.904C260.807 102.091 271.189 102.012 272.503 94.5594C273.16 90.8331 270.091 86.4497 264.502 85.4641C259.954 84.6622 256.392 87.8763 256.063 89.7395C255.519 92.8267 252.576 94.8877 249.488 94.3434C246.401 93.799 244.34 90.8556 244.885 87.7683C246.487 78.6799 256.375 72.5046 266.473 74.2852C281.378 76.9134 285.002 89.0444 283.354 98.3936C281.992 106.116 276.709 111.271 268.475 112.906C266.683 113.264 264.947 113.412 263.41 113.448L262.972 115.932C262.427 119.019 259.484 121.08 256.397 120.535Z" fill="#BE1931"/>
<path d="M253.768 135.441C256.855 135.985 259.799 133.924 260.343 130.837C260.888 127.75 258.826 124.806 255.739 124.262C252.652 123.717 249.709 125.779 249.164 128.866C248.62 131.953 250.681 134.896 253.768 135.441Z" fill="#BE1931"/>
<path d="M43.6 505.2C43.6 510.943 38.9434 515.6 33.2 515.6H-39.6C-45.3434 515.6 -50 510.943 -50 505.2V484.4C-50 478.657 -45.3434 474 -39.6 474H33.2C38.9434 474 43.6 478.657 43.6 484.4V505.2Z" fill="#FFCC4D" fill-opacity="0.8"/>
<path d="M-34.4 474H-39.6C-45.3434 474 -50 478.657 -50 484.4V489.6L-34.4 474ZM-18.8 474L-50 505.2C-50 508.736 -48.2268 511.851 -45.528 513.728L-5.8 474H-18.8ZM-31.8 515.6H-18.8L22.8 474H9.8L-31.8 515.6ZM9.8 515.6L43.3192 482.081C42.5886 478.883 40.3916 476.257 37.464 474.936L-3.2 515.6H9.8ZM43.6 505.2V497.4L25.4 515.6H33.2C38.9434 515.6 43.6 510.943 43.6 505.2Z" fill="#292F33" fill-opacity="0.8"/>
<path d="M-39.5996 515.6H-26.5996V552H-39.5996V515.6ZM20.2004 515.6H33.2004V552H20.2004V515.6Z" fill="#99AAB5" fill-opacity="0.8"/>
<path d="M94.5978 117.751L77.4341 72.9174C76.4328 70.3011 73.6254 68.8564 70.9151 69.5615L34.5414 79.0236C31.8117 79.7337 30.0622 82.3921 30.489 85.1786L37.7713 132.534L94.5978 117.751Z" fill="#DD2E44"/>
<path d="M63.665 115.525C72.8042 113.147 78.2858 103.811 75.9083 94.6721C73.5308 85.5328 64.1947 80.0513 55.0554 82.4287C45.9162 84.8062 40.4346 94.1424 42.8121 103.282C45.1896 112.421 54.5257 117.902 63.665 115.525Z" fill="#BE1931"/>
<path d="M97.1711 117.776L35.2579 133.882L36.627 142.618C37.5462 146.152 41.0799 145.233 41.0799 145.233L97.6183 130.525C97.6183 130.525 101.152 129.606 100.233 126.072L97.1711 117.776Z" fill="#99AAB5"/>
<path d="M97.6373 119.036L97.1719 117.776C96.5836 116.537 95.2691 116.045 93.9422 116.39L37.4037 131.098C36.0768 131.443 35.1687 132.513 35.2587 133.882L35.4662 135.209L97.6373 119.036Z" fill="#CCD6DD"/>
<path d="M79.6463 93.0017L65.5246 94.321L70.645 81.0897C70.766 80.779 70.6431 80.4224 70.3536 80.2524C70.0629 80.0847 69.6929 80.1489 69.4806 80.406L60.4194 91.3236L54.6923 78.3504C54.5578 78.044 54.2176 77.8816 53.8942 77.9657C53.5709 78.0498 53.3529 78.3574 53.3848 78.6906L54.7037 92.8104L41.4728 87.6918C41.1604 87.5713 40.8078 87.6951 40.6356 87.9832C40.4661 88.2744 40.5316 88.6422 40.7891 88.8563L51.7063 97.9157L38.7318 103.645C38.4254 103.779 38.2625 104.118 38.3471 104.443C38.4317 104.768 38.7388 104.984 39.072 104.952L53.1936 103.633L48.075 116.864C47.9544 117.176 48.0769 117.531 48.3664 117.701C48.6571 117.869 49.0253 117.805 49.2394 117.548L58.2988 106.631L64.0277 119.603C64.1626 119.911 64.5024 120.072 64.8258 119.988C65.1491 119.904 65.3667 119.594 65.3352 119.263L64.0145 105.144L77.2454 110.262C77.5556 110.382 77.9122 110.259 78.0826 109.971C78.2521 109.68 78.1866 109.312 77.9291 109.098L67.0119 100.038L79.9864 94.3091C80.2946 94.1742 80.4552 93.8344 80.3711 93.5111C80.287 93.1877 79.9812 92.9693 79.6463 93.0017V93.0017Z" fill="#EC9DAD"/>
</g>
<defs>
<clipPath id="clip0_330:2014">
<rect width="1200" height="620" fill="white"/>
</clipPath>
</defs>
</svg>
