<svg xmlns="http://www.w3.org/2000/svg" width="980" height="1140" fill="none"><path fill="#A8A8A8" d="M403.876 25.818V52h3.759V33.041h.243l7.721 18.92h3.12l7.721-18.907h.243V52h3.759V25.818h-4.794l-8.336 20.352h-.306l-8.336-20.352h-4.794Zm40.274 26.578c5.535 0 9.153-4.052 9.153-10.125 0-6.11-3.618-10.163-9.153-10.163-5.536 0-9.154 4.053-9.154 10.163 0 6.073 3.618 10.125 9.154 10.125Zm.012-3.209c-3.618 0-5.305-3.157-5.305-6.928 0-3.759 1.687-6.955 5.305-6.955 3.593 0 5.28 3.196 5.28 6.954 0 3.772-1.687 6.93-5.28 6.93Zm17.23-8.846c0-3.132 1.918-4.922 4.577-4.922 2.595 0 4.167 1.7 4.167 4.551V52h3.823V39.51c0-4.858-2.672-7.402-6.686-7.402-2.953 0-4.884 1.368-5.791 3.452h-.243v-3.196h-3.669V52h3.822V40.34Zm25.965 12.055c5.535 0 9.153-4.052 9.153-10.125 0-6.11-3.618-10.163-9.153-10.163-5.536 0-9.154 4.053-9.154 10.163 0 6.073 3.618 10.125 9.154 10.125Zm.012-3.209c-3.618 0-5.305-3.157-5.305-6.928 0-3.759 1.687-6.955 5.305-6.955 3.593 0 5.28 3.196 5.28 6.954 0 3.772-1.687 6.93-5.28 6.93ZM500.777 52h3.822V40.008c0-2.57 1.982-4.423 4.692-4.423.792 0 1.687.14 1.994.23V32.16a15.528 15.528 0 0 0-1.623-.09c-2.302 0-4.27 1.305-4.986 3.414h-.205v-3.12h-3.694V52Zm21.576.396c4.283 0 7.312-2.11 8.182-5.305l-3.618-.652c-.69 1.854-2.352 2.8-4.526 2.8-3.272 0-5.471-2.122-5.574-5.907h13.961v-1.355c0-7.095-4.245-9.869-8.693-9.869-5.472 0-9.077 4.168-9.077 10.202 0 6.098 3.554 10.086 9.345 10.086ZM516.83 40.47c.154-2.787 2.174-5.203 5.28-5.203 2.966 0 4.909 2.199 4.922 5.203H516.83Zm18.189 18.895h3.822v-10.42h.23c.691 1.253 2.097 3.44 5.677 3.44 4.755 0 8.207-3.81 8.207-10.164 0-6.366-3.503-10.112-8.246-10.112-3.643 0-4.96 2.224-5.638 3.439h-.319v-3.183h-3.733v27Zm3.746-17.182c0-4.104 1.789-6.827 5.126-6.827 3.464 0 5.203 2.928 5.203 6.827 0 3.937-1.79 6.942-5.203 6.942-3.286 0-5.126-2.813-5.126-6.942Zm26.744 10.214c5.535 0 9.153-4.052 9.153-10.125 0-6.11-3.618-10.163-9.153-10.163-5.536 0-9.154 4.053-9.154 10.163 0 6.073 3.618 10.125 9.154 10.125Zm.013-3.209c-3.618 0-5.306-3.157-5.306-6.928 0-3.759 1.688-6.955 5.306-6.955 3.592 0 5.279 3.196 5.279 6.954 0 3.772-1.687 6.93-5.279 6.93Z"/><path stroke="#9CA3AF" stroke-width="3" d="m489.596 146.376-344 149m344.451-149.301-154 150M490.492 144.85l15 149m-15.548-150.016 184 149M489.583 143.618l353 149"/><rect width="100" height="50" x="439" y="120" fill="#9CA3AF" rx="5"/><path fill="#fff" d="M478.989 145.455c0-4.232-2.583-6.725-6.015-6.725-3.439 0-6.015 2.493-6.015 6.725 0 4.225 2.576 6.724 6.015 6.724 3.432 0 6.015-2.493 6.015-6.724Zm-2.385 0c0 2.978-1.495 4.595-3.63 4.595-2.129 0-3.631-1.617-3.631-4.595 0-2.979 1.502-4.596 3.631-4.596 2.135 0 3.63 1.617 3.63 4.596Zm4.524 6.545h2.314v-5.772c0-1.246.94-2.129 2.212-2.129.39 0 .876.071 1.074.135v-2.129a5.6 5.6 0 0 0-.831-.064c-1.125 0-2.065.639-2.423 1.777h-.102v-1.636h-2.244V152Zm11.003 3.886c2.652 0 4.608-1.214 4.608-3.726v-9.978h-2.282v1.623h-.127c-.352-.709-1.087-1.751-2.819-1.751-2.27 0-4.053 1.777-4.053 5.005 0 3.202 1.783 4.8 4.046 4.8 1.681 0 2.468-.901 2.826-1.623h.115v1.86c0 1.444-.959 2.039-2.276 2.039-1.393 0-2.007-.658-2.288-1.234l-2.084.505c.422 1.375 1.834 2.48 4.334 2.48Zm.019-5.842c-1.528 0-2.333-1.189-2.333-2.998 0-1.783.792-3.094 2.333-3.094 1.489 0 2.307 1.234 2.307 3.094 0 1.873-.831 2.998-2.307 2.998Zm16.725-11.135h-2.257l-3.253 2.09v2.174l3.061-1.956h.077V152h2.372v-13.091Z"/><path stroke="#FFC562" stroke-width="2" d="m148.95 294.312-20 61m19.867-61.888 43 61"/><rect width="100" height="50" x="97" y="269" fill="#FFC562" rx="5"/><rect width="50" height="25" x="103" y="343" fill="#70AF40" rx="5"/><rect width="50" height="25" x="166" y="343" fill="#61A8E8" rx="5"/><path fill="#fff" d="m125.972 301 1.081-3.228h4.921l1.087 3.228h2.531l-4.615-13.091h-2.927L123.441 301h2.531Zm1.72-5.133 1.77-5.273h.103l1.77 5.273h-3.643Zm9.522 8.815h2.314v-5.229h.096c.364.716 1.125 1.72 2.813 1.72 2.314 0 4.046-1.835 4.046-5.069 0-3.273-1.784-5.05-4.053-5.05-1.732 0-2.454 1.042-2.806 1.751h-.134v-1.623h-2.276v13.5Zm2.269-8.591c0-1.905.819-3.139 2.308-3.139 1.54 0 2.333 1.311 2.333 3.139 0 1.841-.805 3.183-2.333 3.183-1.477 0-2.308-1.278-2.308-3.183Zm8.981 8.591h2.314v-5.229h.096c.364.716 1.125 1.72 2.813 1.72 2.314 0 4.046-1.835 4.046-5.069 0-3.273-1.784-5.05-4.053-5.05-1.732 0-2.454 1.042-2.806 1.751h-.134v-1.623h-2.276v13.5Zm2.269-8.591c0-1.905.819-3.139 2.308-3.139 1.54 0 2.333 1.311 2.333 3.139 0 1.841-.805 3.183-2.333 3.183-1.477 0-2.308-1.278-2.308-3.183Zm18.745-8.182h-2.256l-3.254 2.09v2.174l3.062-1.956h.077V301h2.371v-13.091Z"/><rect width="100" height="50" x="285" y="270" fill="#70AF40" rx="5"/><path fill="#fff" d="M316.291 302h8.137v-1.988h-5.765v-11.103h-2.372V302Zm10.093 0h2.314v-9.818h-2.314V302Zm1.164-11.212c.735 0 1.336-.562 1.336-1.252 0-.697-.601-1.26-1.336-1.26-.742 0-1.343.563-1.343 1.26 0 .69.601 1.252 1.343 1.252ZM331.18 302h2.275v-1.547h.135c.364.716 1.125 1.72 2.812 1.72 2.314 0 4.046-1.835 4.046-5.069 0-3.273-1.783-5.05-4.052-5.05-1.732 0-2.455 1.042-2.806 1.751h-.096v-4.896h-2.314V302Zm2.269-4.909c0-1.905.818-3.139 2.308-3.139 1.54 0 2.333 1.311 2.333 3.139 0 1.841-.806 3.183-2.333 3.183-1.477 0-2.308-1.278-2.308-3.183Zm18.73-8.182h-2.256l-3.254 2.09v2.174l3.062-1.956h.077V302h2.371v-13.091Z"/><rect width="100" height="50" x="623" y="269" fill="#EB77A6" rx="5"/><path fill="#fff" d="M654.291 301h8.137v-1.988h-5.765v-11.103h-2.372V301Zm10.093 0h2.314v-9.818h-2.314V301Zm1.164-11.212c.735 0 1.336-.562 1.336-1.252 0-.697-.601-1.26-1.336-1.26-.742 0-1.343.563-1.343 1.26 0 .69.601 1.252 1.343 1.252ZM669.18 301h2.275v-1.547h.135c.364.716 1.125 1.72 2.812 1.72 2.314 0 4.046-1.835 4.046-5.069 0-3.273-1.783-5.05-4.052-5.05-1.732 0-2.455 1.042-2.806 1.751h-.096v-4.896h-2.314V301Zm2.269-4.909c0-1.905.818-3.139 2.308-3.139 1.54 0 2.333 1.311 2.333 3.139 0 1.841-.806 3.183-2.333 3.183-1.477 0-2.308-1.278-2.308-3.183Zm18.104 5.088c2.8 0 4.839-1.604 4.832-3.816.007-1.636-1.016-2.813-2.851-3.075v-.102c1.419-.307 2.372-1.361 2.366-2.832.006-1.994-1.694-3.624-4.309-3.624-2.544 0-4.513 1.515-4.564 3.708h2.282c.039-1.1 1.061-1.784 2.269-1.784 1.221 0 2.033.742 2.027 1.841.006 1.144-.94 1.905-2.295 1.905h-1.157v1.828h1.157c1.656 0 2.64.831 2.634 2.013.006 1.157-.998 1.95-2.397 1.95-1.317 0-2.334-.684-2.391-1.751h-2.404c.064 2.211 2.04 3.739 4.801 3.739Z"/><path stroke="#FFC562" stroke-width="2" d="M505 295v60"/><rect width="100" height="50" x="454" y="269" fill="#FFC562" rx="5"/><rect width="50" height="25" x="479" y="343" fill="#EB77A6" rx="5"/><path fill="#fff" d="m482.972 301 1.081-3.228h4.921l1.087 3.228h2.531l-4.615-13.091h-2.927L480.441 301h2.531Zm1.72-5.133 1.77-5.273h.103l1.77 5.273h-3.643Zm9.522 8.815h2.314v-5.229h.096c.364.716 1.125 1.72 2.813 1.72 2.314 0 4.046-1.835 4.046-5.069 0-3.273-1.784-5.05-4.053-5.05-1.732 0-2.454 1.042-2.806 1.751h-.134v-1.623h-2.276v13.5Zm2.269-8.591c0-1.905.819-3.139 2.308-3.139 1.54 0 2.333 1.311 2.333 3.139 0 1.841-.805 3.183-2.333 3.183-1.477 0-2.308-1.278-2.308-3.183Zm8.981 8.591h2.314v-5.229h.096c.364.716 1.125 1.72 2.813 1.72 2.314 0 4.046-1.835 4.046-5.069 0-3.273-1.784-5.05-4.053-5.05-1.732 0-2.454 1.042-2.806 1.751h-.134v-1.623h-2.276v13.5Zm2.269-8.591c0-1.905.819-3.139 2.308-3.139 1.54 0 2.333 1.311 2.333 3.139 0 1.841-.805 3.183-2.333 3.183-1.477 0-2.308-1.278-2.308-3.183ZM521.154 301h8.974v-1.982h-5.702v-.089l2.257-2.295c2.544-2.442 3.247-3.63 3.247-5.107 0-2.192-1.784-3.797-4.417-3.797-2.595 0-4.436 1.611-4.436 4.097h2.256c0-1.336.844-2.173 2.148-2.173 1.246 0 2.173.761 2.173 1.994 0 1.093-.664 1.873-1.956 3.184l-4.544 4.455V301Z"/><path stroke="#61A8E8" stroke-width="3" d="M840.5 355v-61"/><rect width="100" height="50" x="792" y="269" fill="#61A8E8" rx="5"/><rect width="50" height="25" x="817" y="343" fill="#EB77A6" rx="5"/><path fill="#fff" d="M822.291 301h8.137v-1.988h-5.765v-11.103h-2.372V301Zm10.093 0h2.314v-9.818h-2.314V301Zm1.164-11.212c.735 0 1.336-.562 1.336-1.252 0-.697-.601-1.26-1.336-1.26-.742 0-1.343.563-1.343 1.26 0 .69.601 1.252 1.343 1.252ZM837.18 301h2.275v-1.547h.135c.364.716 1.125 1.72 2.812 1.72 2.314 0 4.046-1.835 4.046-5.069 0-3.273-1.783-5.05-4.052-5.05-1.732 0-2.455 1.042-2.806 1.751h-.096v-4.896h-2.314V301Zm2.269-4.909c0-1.905.818-3.139 2.308-3.139 1.54 0 2.333 1.311 2.333 3.139 0 1.841-.806 3.183-2.333 3.183-1.477 0-2.308-1.278-2.308-3.183ZM852.855 301h8.974v-1.982h-5.702v-.089l2.257-2.295c2.544-2.442 3.247-3.63 3.247-5.107 0-2.192-1.783-3.797-4.417-3.797-2.595 0-4.436 1.611-4.436 4.097h2.256c0-1.336.844-2.173 2.148-2.173 1.247 0 2.173.761 2.173 1.994 0 1.093-.664 1.873-1.955 3.184l-4.545 4.455V301Z"/><rect width="945" height="427" x="17" y="87" stroke="#9CA3AF" stroke-dasharray="6 6" stroke-width="3" rx="15"/><path fill="#FF6D74" d="m587.992 826 11.473 1.302-4.609-10.587-6.864 9.285Zm124.17-55.147-116.317 50.638.798 1.833 116.317-50.637-.798-1.834Z"/><circle cx="712.789" cy="771.5" r="47.5" fill="#FF6D74"/><path fill="#fff" d="m689.261 768 1.08-3.228h4.922L696.35 768h2.531l-4.615-13.091h-2.928L686.73 768h2.531Zm1.719-5.133 1.771-5.273h.102l1.771 5.273h-3.644Zm9.523 8.815h2.314v-5.229h.096c.364.716 1.125 1.72 2.812 1.72 2.314 0 4.046-1.835 4.046-5.069 0-3.273-1.783-5.05-4.052-5.05-1.732 0-2.455 1.042-2.806 1.751h-.135v-1.623h-2.275v13.5Zm2.269-8.591c0-1.905.818-3.139 2.308-3.139 1.54 0 2.333 1.311 2.333 3.139 0 1.841-.806 3.183-2.333 3.183-1.477 0-2.308-1.278-2.308-3.183Zm8.981 8.591h2.314v-5.229h.096c.364.716 1.125 1.72 2.812 1.72 2.314 0 4.046-1.835 4.046-5.069 0-3.273-1.783-5.05-4.052-5.05-1.732 0-2.455 1.042-2.806 1.751h-.135v-1.623h-2.275v13.5Zm2.269-8.591c0-1.905.818-3.139 2.308-3.139 1.54 0 2.333 1.311 2.333 3.139 0 1.841-.806 3.183-2.333 3.183-1.477 0-2.308-1.278-2.308-3.183Zm13.42 4.909h8.975v-1.982h-5.702v-.089l2.256-2.295c2.544-2.442 3.247-3.63 3.247-5.107 0-2.192-1.783-3.797-4.416-3.797-2.596 0-4.437 1.611-4.437 4.097h2.257c0-1.336.844-2.173 2.148-2.173 1.246 0 2.173.761 2.173 1.994 0 1.093-.665 1.873-1.956 3.184l-4.545 4.455V768Zm-39.862 22h2.371v-4.794h2.416l2.57 4.794h2.646l-2.831-5.19c1.54-.62 2.352-1.937 2.352-3.714 0-2.499-1.611-4.187-4.615-4.187h-4.909V790Zm2.371-6.763v-4.346h2.174c1.77 0 2.563.811 2.563 2.205 0 1.393-.793 2.141-2.551 2.141h-2.186Zm13.439 6.955c2.289 0 3.861-1.119 4.27-2.826l-2.16-.242c-.313.831-1.08 1.265-2.078 1.265-1.495 0-2.486-.984-2.505-2.665h6.839v-.71c0-3.445-2.071-4.96-4.487-4.96-2.812 0-4.647 2.065-4.647 5.094 0 3.081 1.809 5.044 4.768 5.044Zm-2.467-6.028c.07-1.253.997-2.307 2.378-2.307 1.33 0 2.224.971 2.237 2.307h-4.615Zm8.791 9.518h2.314v-5.229h.096c.364.716 1.125 1.72 2.812 1.72 2.314 0 4.046-1.835 4.046-5.069 0-3.273-1.783-5.05-4.052-5.05-1.733 0-2.455 1.042-2.806 1.751h-.135v-1.623h-2.275v13.5Zm2.269-8.591c0-1.905.818-3.139 2.308-3.139 1.54 0 2.333 1.311 2.333 3.139 0 1.841-.806 3.183-2.333 3.183-1.477 0-2.308-1.278-2.308-3.183Zm13.263 5.101c2.877 0 4.705-2.027 4.705-5.063 0-3.042-1.828-5.075-4.705-5.075-2.876 0-4.704 2.033-4.704 5.075 0 3.036 1.828 5.063 4.704 5.063Zm.013-1.854c-1.591 0-2.371-1.419-2.371-3.215 0-1.796.78-3.235 2.371-3.235 1.566 0 2.346 1.439 2.346 3.235 0 1.796-.78 3.215-2.346 3.215Z"/><path fill="#9CA3AF" d="m506 946-7.481 8.796 11.358 2.081L506 946Zm-13.448 78.95 12.81-69.917-1.968-.361-12.809 69.918 1.967.36Z"/><circle cx="491.797" cy="1024.5" r="47.5" fill="#9CA3AF"/><path fill="#fff" d="m468.269 1021 1.08-3.23h4.922l1.087 3.23h2.531l-4.615-13.09h-2.928l-4.608 13.09h2.531Zm1.719-5.13 1.771-5.28h.102l1.771 5.28h-3.644Zm9.523 8.81h2.314v-5.23h.096c.364.72 1.125 1.72 2.812 1.72 2.314 0 4.046-1.83 4.046-5.07 0-3.27-1.783-5.05-4.052-5.05-1.732 0-2.455 1.05-2.806 1.76h-.134v-1.63h-2.276v13.5Zm2.269-8.59c0-1.9.818-3.14 2.308-3.14 1.54 0 2.333 1.31 2.333 3.14 0 1.84-.806 3.18-2.333 3.18-1.477 0-2.308-1.27-2.308-3.18Zm8.981 8.59h2.314v-5.23h.096c.364.72 1.125 1.72 2.812 1.72 2.314 0 4.046-1.83 4.046-5.07 0-3.27-1.783-5.05-4.052-5.05-1.732 0-2.455 1.05-2.806 1.76h-.134v-1.63h-2.276v13.5Zm2.269-8.59c0-1.9.818-3.14 2.308-3.14 1.54 0 2.333 1.31 2.333 3.14 0 1.84-.806 3.18-2.333 3.18-1.477 0-2.308-1.27-2.308-3.18Zm13.42 4.91h8.975v-1.98h-5.702v-.09l2.256-2.3c2.544-2.44 3.247-3.63 3.247-5.1 0-2.2-1.783-3.8-4.416-3.8-2.596 0-4.436 1.61-4.436 4.1h2.256c0-1.34.844-2.18 2.148-2.18 1.246 0 2.173.76 2.173 2 0 1.09-.665 1.87-1.956 3.18l-4.545 4.46v1.71Zm-39.862 22h2.371v-4.79h2.416l2.57 4.79h2.646l-2.831-5.19c1.54-.62 2.352-1.94 2.352-3.71 0-2.5-1.611-4.19-4.615-4.19h-4.909V1043Zm2.371-6.76v-4.35h2.174c1.77 0 2.563.81 2.563 2.21 0 1.39-.793 2.14-2.551 2.14h-2.186Zm13.44 6.95c2.288 0 3.86-1.12 4.269-2.82l-2.16-.25c-.313.83-1.08 1.27-2.077 1.27-1.496 0-2.487-.99-2.506-2.67h6.839v-.71c0-3.44-2.071-4.96-4.487-4.96-2.812 0-4.647 2.07-4.647 5.1 0 3.08 1.809 5.04 4.769 5.04Zm-2.468-6.03c.071-1.25.997-2.3 2.378-2.3 1.33 0 2.224.97 2.237 2.3h-4.615Zm8.791 9.52h2.314v-5.23h.096c.364.72 1.125 1.72 2.812 1.72 2.314 0 4.046-1.83 4.046-5.07 0-3.27-1.783-5.05-4.052-5.05-1.732 0-2.455 1.05-2.806 1.76h-.135v-1.63h-2.275v13.5Zm2.269-8.59c0-1.9.818-3.14 2.308-3.14 1.54 0 2.333 1.31 2.333 3.14 0 1.84-.806 3.18-2.333 3.18-1.477 0-2.308-1.27-2.308-3.18Zm13.264 5.1c2.876 0 4.704-2.02 4.704-5.06 0-3.04-1.828-5.08-4.704-5.08-2.877 0-4.705 2.04-4.705 5.08s1.828 5.06 4.705 5.06Zm.012-1.85c-1.591 0-2.371-1.42-2.371-3.22 0-1.79.78-3.23 2.371-3.23 1.566 0 2.346 1.44 2.346 3.23 0 1.8-.78 3.22-2.346 3.22Z"/><path fill="#61A8E8" d="m617.992 919 7.589 8.703 3.742-10.924L617.992 919Zm116.876 38.983L626.83 920.971l-.648 1.892 108.038 37.012.648-1.892Z"/><circle cx="735.115" cy="958.5" r="47.5" fill="#61A8E8"/><path fill="#fff" d="m711.73 955 1.08-3.228h4.922l1.087 3.228h2.531l-4.615-13.091h-2.928L709.199 955h2.531Zm1.719-5.133 1.771-5.273h.102l1.771 5.273h-3.644Zm9.523 8.815h2.314v-5.229h.096c.364.716 1.125 1.72 2.812 1.72 2.314 0 4.046-1.835 4.046-5.069 0-3.273-1.783-5.05-4.052-5.05-1.732 0-2.455 1.042-2.806 1.751h-.135v-1.623h-2.275v13.5Zm2.269-8.591c0-1.905.818-3.139 2.308-3.139 1.54 0 2.333 1.311 2.333 3.139 0 1.841-.806 3.183-2.333 3.183-1.477 0-2.308-1.278-2.308-3.183Zm8.981 8.591h2.314v-5.229h.096c.364.716 1.125 1.72 2.812 1.72 2.314 0 4.046-1.835 4.046-5.069 0-3.273-1.783-5.05-4.052-5.05-1.732 0-2.455 1.042-2.806 1.751h-.135v-1.623h-2.275v13.5Zm2.269-8.591c0-1.905.818-3.139 2.308-3.139 1.54 0 2.333 1.311 2.333 3.139 0 1.841-.806 3.183-2.333 3.183-1.477 0-2.308-1.278-2.308-3.183Zm18.118 5.088c2.8 0 4.839-1.604 4.833-3.816.006-1.636-1.017-2.813-2.851-3.075v-.102c1.419-.307 2.371-1.361 2.365-2.832.006-1.994-1.694-3.624-4.308-3.624-2.544 0-4.513 1.515-4.564 3.708h2.282c.038-1.1 1.061-1.784 2.269-1.784 1.221 0 2.033.742 2.026 1.841.007 1.144-.939 1.905-2.295 1.905h-1.157v1.828h1.157c1.656 0 2.64.831 2.634 2.013.006 1.157-.997 1.95-2.397 1.95-1.317 0-2.333-.684-2.391-1.751h-2.403c.064 2.211 2.039 3.739 4.8 3.739ZM713.687 977h2.372v-4.794h2.416l2.57 4.794h2.646l-2.832-5.19c1.541-.62 2.353-1.937 2.353-3.714 0-2.499-1.611-4.187-4.615-4.187h-4.91V977Zm2.372-6.763v-4.346h2.173c1.771 0 2.563.811 2.563 2.205 0 1.393-.792 2.141-2.55 2.141h-2.186Zm13.439 6.955c2.289 0 3.861-1.119 4.27-2.826l-2.16-.242c-.314.831-1.081 1.265-2.078 1.265-1.496 0-2.486-.984-2.506-2.665h6.84v-.71c0-3.445-2.071-4.96-4.487-4.96-2.813 0-4.647 2.065-4.647 5.094 0 3.081 1.809 5.044 4.768 5.044Zm-2.467-6.028c.07-1.253.997-2.307 2.378-2.307 1.329 0 2.224.971 2.237 2.307h-4.615Zm8.79 9.518h2.314v-5.229h.096c.365.716 1.125 1.72 2.813 1.72 2.314 0 4.046-1.835 4.046-5.069 0-3.273-1.783-5.05-4.053-5.05-1.732 0-2.454 1.042-2.806 1.751h-.134v-1.623h-2.276v13.5Zm2.27-8.591c0-1.905.818-3.139 2.307-3.139 1.541 0 2.333 1.311 2.333 3.139 0 1.841-.805 3.183-2.333 3.183-1.476 0-2.307-1.278-2.307-3.183Zm13.263 5.101c2.877 0 4.705-2.027 4.705-5.063 0-3.042-1.828-5.075-4.705-5.075-2.876 0-4.704 2.033-4.704 5.075 0 3.036 1.828 5.063 4.704 5.063Zm.013-1.854c-1.592 0-2.372-1.419-2.372-3.215 0-1.796.78-3.235 2.372-3.235 1.566 0 2.346 1.439 2.346 3.235 0 1.796-.78 3.215-2.346 3.215Z"/><path fill="#70AF40" d="m447.369 841-6.371-9.63-5.155 10.332 11.526-.702Zm-138.894-68.176 130.394 65.053.893-1.79-130.394-65.053-.893 1.79Z"/><circle cx="309.492" cy="771.5" r="47.5" fill="#70AF40"/><path fill="#fff" d="m285.975 768 1.08-3.228h4.922l1.087 3.228h2.531l-4.615-13.091h-2.928L283.444 768h2.531Zm1.719-5.133 1.771-5.273h.102l1.771 5.273h-3.644Zm9.523 8.815h2.314v-5.229h.096c.364.716 1.125 1.72 2.812 1.72 2.314 0 4.046-1.835 4.046-5.069 0-3.273-1.783-5.05-4.052-5.05-1.732 0-2.455 1.042-2.806 1.751h-.134v-1.623h-2.276v13.5Zm2.269-8.591c0-1.905.818-3.139 2.308-3.139 1.54 0 2.333 1.311 2.333 3.139 0 1.841-.806 3.183-2.333 3.183-1.477 0-2.308-1.278-2.308-3.183Zm8.981 8.591h2.314v-5.229h.096c.364.716 1.125 1.72 2.812 1.72 2.314 0 4.046-1.835 4.046-5.069 0-3.273-1.783-5.05-4.052-5.05-1.732 0-2.455 1.042-2.806 1.751h-.134v-1.623h-2.276v13.5Zm2.269-8.591c0-1.905.818-3.139 2.308-3.139 1.54 0 2.333 1.311 2.333 3.139 0 1.841-.806 3.183-2.333 3.183-1.477 0-2.308-1.278-2.308-3.183Zm13.184 2.48h6.245V768h2.263v-2.429h1.674v-1.95h-1.674v-8.712h-2.954l-5.554 8.776v1.886Zm6.27-1.95h-3.841v-.102l3.739-5.925h.102v6.027ZM288.064 790h2.372v-4.794h2.416l2.57 4.794h2.646l-2.832-5.19c1.541-.62 2.353-1.937 2.353-3.714 0-2.499-1.611-4.187-4.616-4.187h-4.909V790Zm2.372-6.763v-4.346h2.173c1.771 0 2.563.811 2.563 2.205 0 1.393-.792 2.141-2.55 2.141h-2.186Zm13.439 6.955c2.288 0 3.861-1.119 4.27-2.826l-2.161-.242c-.313.831-1.08 1.265-2.077 1.265-1.496 0-2.486-.984-2.506-2.665h6.84v-.71c0-3.445-2.071-4.96-4.487-4.96-2.813 0-4.647 2.065-4.647 5.094 0 3.081 1.809 5.044 4.768 5.044Zm-2.467-6.028c.07-1.253.997-2.307 2.378-2.307 1.329 0 2.224.971 2.237 2.307h-4.615Zm8.79 9.518h2.314v-5.229h.096c.365.716 1.125 1.72 2.813 1.72 2.314 0 4.046-1.835 4.046-5.069 0-3.273-1.783-5.05-4.053-5.05-1.732 0-2.454 1.042-2.806 1.751h-.134v-1.623h-2.276v13.5Zm2.27-8.591c0-1.905.818-3.139 2.307-3.139 1.541 0 2.333 1.311 2.333 3.139 0 1.841-.805 3.183-2.333 3.183-1.476 0-2.307-1.278-2.307-3.183Zm13.263 5.101c2.877 0 4.705-2.027 4.705-5.063 0-3.042-1.828-5.075-4.705-5.075-2.876 0-4.704 2.033-4.704 5.075 0 3.036 1.828 5.063 4.704 5.063Zm.013-1.854c-1.592 0-2.372-1.419-2.372-3.215 0-1.796.78-3.235 2.372-3.235 1.566 0 2.346 1.439 2.346 3.235 0 1.796-.78 3.215-2.346 3.215Z"/><path fill="#FFC562" d="m446.992 899-11.043-3.374 2.6 11.251 8.443-7.877Zm-202.986 47.931 194.442-44.93-.45-1.949-194.442 44.93.45 1.949Z"/><circle cx="244.5" cy="946.399" r="47.5" fill="#FFC562"/><path fill="#fff" d="m222.972 942.899 1.081-3.228h4.921l1.087 3.228h2.531l-4.615-13.091h-2.927l-4.609 13.091h2.531Zm1.72-5.132 1.77-5.274h.103l1.77 5.274h-3.643Zm9.522 8.814h2.314v-5.229h.096c.364.716 1.125 1.72 2.813 1.72 2.314 0 4.046-1.835 4.046-5.069 0-3.273-1.784-5.05-4.053-5.05-1.732 0-2.454 1.042-2.806 1.752h-.134v-1.624h-2.276v13.5Zm2.269-8.591c0-1.905.819-3.138 2.308-3.138 1.54 0 2.333 1.31 2.333 3.138 0 1.841-.805 3.184-2.333 3.184-1.477 0-2.308-1.279-2.308-3.184Zm8.981 8.591h2.314v-5.229h.096c.364.716 1.125 1.72 2.813 1.72 2.314 0 4.046-1.835 4.046-5.069 0-3.273-1.784-5.05-4.053-5.05-1.732 0-2.454 1.042-2.806 1.752h-.134v-1.624h-2.276v13.5Zm2.269-8.591c0-1.905.819-3.138 2.308-3.138 1.54 0 2.333 1.31 2.333 3.138 0 1.841-.805 3.184-2.333 3.184-1.477 0-2.308-1.279-2.308-3.184Zm18.745-8.182h-2.256l-3.254 2.091v2.173l3.062-1.956h.077v10.783h2.371v-13.091Zm-45.187 35.091h2.372v-4.794h2.416l2.569 4.794h2.647l-2.832-5.19c1.541-.62 2.352-1.937 2.352-3.714 0-2.499-1.61-4.187-4.615-4.187h-4.909v13.091Zm2.372-6.762v-4.347h2.173c1.771 0 2.563.812 2.563 2.205 0 1.394-.792 2.142-2.55 2.142h-2.186Zm13.439 6.954c2.288 0 3.861-1.118 4.27-2.825l-2.161-.243c-.313.831-1.08 1.266-2.077 1.266-1.496 0-2.487-.985-2.506-2.666h6.84v-.709c0-3.446-2.071-4.961-4.488-4.961-2.812 0-4.647 2.065-4.647 5.095 0 3.081 1.809 5.043 4.769 5.043Zm-2.467-6.028c.07-1.252.997-2.307 2.377-2.307 1.33 0 2.225.971 2.238 2.307h-4.615Zm8.79 9.518h2.314v-5.229h.096c.364.716 1.125 1.72 2.813 1.72 2.313 0 4.046-1.835 4.046-5.069 0-3.273-1.784-5.05-4.053-5.05-1.732 0-2.454 1.042-2.806 1.752h-.134v-1.624h-2.276v13.5Zm2.269-8.591c0-1.905.819-3.138 2.308-3.138 1.54 0 2.333 1.31 2.333 3.138 0 1.841-.805 3.184-2.333 3.184-1.477 0-2.308-1.279-2.308-3.184Zm13.264 5.101c2.876 0 4.704-2.026 4.704-5.062 0-3.043-1.828-5.076-4.704-5.076-2.877 0-4.705 2.033-4.705 5.076 0 3.036 1.828 5.062 4.705 5.062Zm.013-1.854c-1.592 0-2.372-1.419-2.372-3.215 0-1.796.78-3.234 2.372-3.234 1.566 0 2.346 1.438 2.346 3.234s-.78 3.215-2.346 3.215Z"/><circle cx="520.492" cy="866.5" r="59.5" fill="#EB77A6"/><path fill="#fff" d="M490.618 863h8.137v-1.988h-5.765v-11.103h-2.372V863Zm10.093 0h2.314v-9.818h-2.314V863Zm1.163-11.212c.736 0 1.336-.562 1.336-1.252 0-.697-.6-1.26-1.336-1.26-.741 0-1.342.563-1.342 1.26 0 .69.601 1.252 1.342 1.252ZM505.507 863h2.275v-1.547h.135c.364.716 1.125 1.72 2.812 1.72 2.314 0 4.046-1.835 4.046-5.069 0-3.273-1.783-5.05-4.052-5.05-1.733 0-2.455 1.042-2.806 1.751h-.096v-4.896h-2.314V863Zm2.269-4.909c0-1.905.818-3.139 2.307-3.139 1.541 0 2.334 1.311 2.334 3.139 0 1.841-.806 3.183-2.334 3.183-1.476 0-2.307-1.278-2.307-3.183Zm8.966 4.909h2.314v-5.772c0-1.246.94-2.129 2.212-2.129.39 0 .876.071 1.074.135v-2.129a5.6 5.6 0 0 0-.831-.064c-1.125 0-2.065.639-2.423 1.777h-.102v-1.636h-2.244V863Zm9.769.198c1.541 0 2.461-.722 2.883-1.547h.077V863h2.224v-6.571c0-2.595-2.116-3.375-3.989-3.375-2.064 0-3.65.92-4.161 2.71l2.161.307c.23-.671.882-1.246 2.013-1.246 1.074 0 1.662.549 1.662 1.514v.039c0 .665-.697.697-2.429.882-1.905.204-3.726.773-3.726 2.985 0 1.93 1.412 2.953 3.285 2.953Zm.601-1.7c-.965 0-1.656-.441-1.656-1.291 0-.889.774-1.26 1.809-1.407.608-.083 1.822-.236 2.122-.479v1.157c0 1.093-.882 2.02-2.275 2.02Zm6.91 1.502h2.314v-5.772c0-1.246.939-2.129 2.211-2.129.39 0 .876.071 1.074.135v-2.129a5.6 5.6 0 0 0-.831-.064c-1.125 0-2.064.639-2.422 1.777h-.103v-1.636h-2.243V863Zm8.873 3.682c1.803 0 2.845-.927 3.401-2.493l3.944-10.994-2.474-.013-2.269 7.415h-.102l-2.263-7.415h-2.455l3.561 10.023-.198.53c-.429 1.119-1.106 1.195-2.116.901l-.537 1.803c.313.128.876.243 1.508.243ZM499.064 885h2.372v-4.794h2.416l2.57 4.794h2.646l-2.832-5.19c1.541-.62 2.353-1.937 2.353-3.714 0-2.499-1.611-4.187-4.616-4.187h-4.909V885Zm2.372-6.763v-4.346h2.173c1.771 0 2.563.811 2.563 2.205 0 1.393-.792 2.141-2.55 2.141h-2.186Zm13.439 6.955c2.288 0 3.861-1.119 4.27-2.826l-2.161-.242c-.313.831-1.08 1.265-2.077 1.265-1.496 0-2.486-.984-2.506-2.665h6.84v-.71c0-3.445-2.071-4.96-4.487-4.96-2.813 0-4.647 2.065-4.647 5.094 0 3.081 1.809 5.044 4.768 5.044Zm-2.467-6.028c.07-1.253.997-2.307 2.378-2.307 1.329 0 2.224.971 2.237 2.307h-4.615Zm8.79 9.518h2.314v-5.229h.096c.365.716 1.125 1.72 2.813 1.72 2.314 0 4.046-1.835 4.046-5.069 0-3.273-1.783-5.05-4.053-5.05-1.732 0-2.454 1.042-2.806 1.751h-.134v-1.623h-2.276v13.5Zm2.27-8.591c0-1.905.818-3.139 2.307-3.139 1.541 0 2.333 1.311 2.333 3.139 0 1.841-.805 3.183-2.333 3.183-1.476 0-2.307-1.278-2.307-3.183Zm13.263 5.101c2.877 0 4.705-2.027 4.705-5.063 0-3.042-1.828-5.075-4.705-5.075-2.876 0-4.704 2.033-4.704 5.075 0 3.036 1.828 5.063 4.704 5.063Zm.013-1.854c-1.592 0-2.372-1.419-2.372-3.215 0-1.796.78-3.235 2.372-3.235 1.566 0 2.346 1.439 2.346 3.235 0 1.796-.78 3.215-2.346 3.215Z"/><rect width="936" height="469" x="22" y="653" stroke="#9CA3AF" stroke-dasharray="6 6" stroke-width="3" rx="15"/><path fill="#A8A8A8" d="M415.876 618h3.951v-9.205h5.369c6.072 0 9.077-3.669 9.077-8.501 0-4.82-2.979-8.476-9.064-8.476h-9.333V618Zm3.951-12.554v-10.24h4.96c3.912 0 5.51 2.122 5.51 5.088s-1.598 5.152-5.459 5.152h-5.011Zm26.795 12.95c5.536 0 9.154-4.052 9.154-10.125 0-6.11-3.618-10.163-9.154-10.163-5.535 0-9.153 4.053-9.153 10.163 0 6.073 3.618 10.125 9.153 10.125Zm.013-3.208c-3.618 0-5.305-3.158-5.305-6.929 0-3.759 1.687-6.955 5.305-6.955 3.592 0 5.28 3.196 5.28 6.955 0 3.771-1.688 6.929-5.28 6.929Zm17.23-23.37h-3.823V618h3.823v-26.182Zm7.558 33.546c3.158 0 5.152-1.65 6.29-4.743l8.118-22.219-4.129-.038-4.973 15.238h-.205l-4.973-15.238h-4.091l7.185 19.892-.473 1.304c-.972 2.608-2.34 2.825-4.436 2.25l-.921 3.132c.461.204 1.458.422 2.608.422Zm18.01-7.364h3.822v-11.991c0-2.57 1.982-4.424 4.692-4.424.793 0 1.688.141 1.994.23v-3.656a15.547 15.547 0 0 0-1.623-.089c-2.301 0-4.27 1.304-4.986 3.413h-.205v-3.119h-3.694V618Zm21.576.396c4.283 0 7.313-2.109 8.182-5.305l-3.618-.652c-.69 1.854-2.352 2.8-4.525 2.8-3.273 0-5.472-2.123-5.574-5.907h13.96v-1.355c0-7.095-4.244-9.869-8.693-9.869-5.472 0-9.077 4.168-9.077 10.202 0 6.098 3.554 10.086 9.345 10.086Zm-5.522-11.927c.153-2.787 2.173-5.203 5.279-5.203 2.966 0 4.909 2.198 4.922 5.203h-10.201Zm18.188 18.895h3.823v-10.419h.23c.69 1.252 2.096 3.439 5.676 3.439 4.755 0 8.207-3.81 8.207-10.164 0-6.366-3.503-10.112-8.246-10.112-3.643 0-4.96 2.224-5.637 3.439h-.32v-3.183h-3.733v27Zm3.746-17.182c0-4.104 1.79-6.827 5.126-6.827 3.465 0 5.203 2.928 5.203 6.827 0 3.937-1.789 6.942-5.203 6.942-3.285 0-5.126-2.813-5.126-6.942Zm26.744 10.214c5.536 0 9.154-4.052 9.154-10.125 0-6.11-3.618-10.163-9.154-10.163-5.535 0-9.153 4.053-9.153 10.163 0 6.073 3.618 10.125 9.153 10.125Zm.013-3.208c-3.618 0-5.305-3.158-5.305-6.929 0-3.759 1.687-6.955 5.305-6.955 3.592 0 5.28 3.196 5.28 6.955 0 3.771-1.688 6.929-5.28 6.929Z"/></svg>