<svg xmlns="http://www.w3.org/2000/svg" width="1200" height="620" fill="none"><g clip-path="url(#a)"><path fill="#E0E7F9" d="M0 0h1200v620H0z"/><path stroke="#BFD2F0" stroke-linecap="round" stroke-linejoin="round" stroke-width="77" d="M-53 235.5c240 0 112.05 269.185 261.9 282.5C348 530.36 323.6 60.149 470.8 68.5c147.2 8.35 122.204 384.053 261.9 379 139.696-5.053 162-244 261.9-244 99.9 0 83.9 190 261.9 190"/><path stroke="#3A6EC0" stroke-dasharray="10 20" stroke-linecap="round" stroke-linejoin="round" stroke-width="6" d="M-53 235.5c240 0 112.05 269.185 261.9 282.5C348 530.36 323.6 60.149 470.8 68.5c147.2 8.35 122.204 384.053 261.9 379 139.696-5.053 162-244 261.9-244 99.9 0 83.9 190 261.9 190"/><path fill="#31373D" d="M217.838 297c-21.45 0-38.838 7.672-38.838 17.134 0 9.463 17.388 17.135 38.838 17.135s38.838-7.672 38.838-17.135c0-9.462-17.388-17.134-38.838-17.134Z"/><path fill="#7D8B93" d="M254.097 315.923c.18-.585.294-1.179.294-1.789 0-3.239-2.65-6.113-6.853-8.45v6.346c2.474 1.165 4.683 2.468 6.559 3.893Zm-65.959-10.239c-4.203 2.337-6.853 5.211-6.853 8.45 0 .61.114 1.204.294 1.789 1.876-1.425 4.085-2.728 6.559-3.893v-6.346Z"/><path fill="#CCD6DD" d="M217.838 299.285c-10.889 0-22.549 2.421-29.7 6.399v6.346c7.763-3.651 18.201-5.892 29.7-5.892 11.498 0 21.936 2.241 29.699 5.892v-6.346c-7.15-3.978-18.811-6.399-29.699-6.399Z"/><path fill="#F4900C" d="M635.474 477.533a38.745 38.745 0 0 0-4.668-12.79c1.103 12.307-4.263 19.675-11.528 17.966-6.806-1.603-4.411-12.949-4.987-18.06-.98-8.663-3.268-18.375-20.273-23.785 8.651 11.233 4.287 19.93-1.629 21.455-6.563 1.693-13.758-3.471-13.293-13.992-6.339 6.653-4.957 15.726-1.679 21.174 3.419 5.68 1.872 11.172-3.745 12.742-6.279 1.757-11.147-5.089-9.972-17.572a38.691 38.691 0 0 0-4.722 26.35c3.725 21.124 23.868 35.229 44.992 31.504 21.124-3.725 35.229-23.868 31.504-44.992Z"/><path fill="#FFCC4D" d="M622.595 491.401c1.556 6.88-4.059 10.675-7.571 9.939-5.073-1.061-4.376-4.543-6.786-11.078-2.409-6.534-7.922-10.394-15.222-11.234 7.574 13.355.632 19.994-3.326 21.659-4.043 1.701-8.444 1.487-10.517-7.441-4.051 5.758-5.9 13.062-4.581 20.54.146.828.341 1.634.556 2.431 8.111 5.608 18.343 8.156 28.822 6.308 10.48-1.848 19.224-7.742 24.927-15.786a28.131 28.131 0 0 0-.308-2.474 27.275 27.275 0 0 0-5.994-12.864Z"/><path fill="#E1E8ED" d="M455.992 202h38.838v54.83h-38.838V202Z"/><path fill="#99AAB5" d="M455.992 229.415h38.838v27.415h-38.838v-27.415Z"/><path fill="#CCD6DD" d="M455.992 256.83c8.832 0 15.992-12.274 15.992-27.415S464.824 202 455.992 202 440 214.274 440 229.415s7.16 27.415 15.992 27.415Z"/><path fill="#E1E8ED" d="M494.83 256.83c10.094 0 18.277-12.274 18.277-27.415S504.924 202 494.83 202c-10.094 0-18.277 12.274-18.277 27.415s8.183 27.415 18.277 27.415Z"/><path fill="#E1E8ED" d="M513.107 229.415v27.415c0 20.561 9.138 27.415 9.138 27.415h-41.122s-9.139-6.854-9.139-27.415v-29.7l41.123 2.285Z"/><path fill="#F5F8FA" d="M513.107 229.415c0-11.249-4.521-20.904-10.982-25.13h-36.259c5.088 5.218 8.403 14.429 8.403 25.13v31.984c.98 12.983 6.129 18.962 7.729 20.561h38.077c-2.703-3.436-6.968-11.078-6.968-25.13v-27.415Z"/><path fill="#99AAB5" d="M453.707 240.838c3.785 0 6.854-5.114 6.854-11.423s-3.069-11.423-6.854-11.423-6.853 5.114-6.853 11.423 3.068 11.423 6.853 11.423Z"/><path fill="#66757F" d="M447.425 224.869c1.055-4.044 3.468-6.877 6.282-6.877 3.786 0 6.854 5.115 6.854 11.423 0 1.407-.173 2.741-.452 3.987-1.483-4.771-6.559-8.321-12.684-8.533Z"/><path fill="#CCD6DD" d="M477.695 231.699h-3.426v-2.284h3.426c.629 0 1.143.514 1.143 1.142 0 .628-.514 1.142-1.143 1.142Zm9.139 0h-4.569a1.146 1.146 0 0 1-1.143-1.142c0-.628.514-1.142 1.143-1.142h4.569c.628 0 1.142.514 1.142 1.142 0 .628-.514 1.142-1.142 1.142Zm9.138 0h-4.569a1.145 1.145 0 0 1-1.142-1.142c0-.628.514-1.142 1.142-1.142h4.569c.628 0 1.142.514 1.142 1.142 0 .628-.514 1.142-1.142 1.142Zm9.138 0h-4.569a1.145 1.145 0 0 1-1.142-1.142c0-.628.514-1.142 1.142-1.142h4.569c.629 0 1.143.514 1.143 1.142 0 .628-.514 1.142-1.143 1.142Zm7.996 0h-3.426a1.146 1.146 0 0 1-1.143-1.142c0-.628.514-1.142 1.143-1.142h3.426v2.284Zm-35.411 27.415h-3.426v-2.284h3.426c.629 0 1.143.514 1.143 1.142 0 .628-.514 1.142-1.143 1.142Zm9.139 0h-4.569a1.146 1.146 0 0 1-1.143-1.142c0-.628.514-1.142 1.143-1.142h4.569c.628 0 1.142.514 1.142 1.142 0 .628-.514 1.142-1.142 1.142Zm9.138 0h-4.569a1.145 1.145 0 0 1-1.142-1.142c0-.628.514-1.142 1.142-1.142h4.569c.628 0 1.142.514 1.142 1.142 0 .628-.514 1.142-1.142 1.142Zm9.138 0h-4.569a1.145 1.145 0 0 1-1.142-1.142c0-.628.514-1.142 1.142-1.142h4.569c.629 0 1.143.514 1.143 1.142 0 .628-.514 1.142-1.143 1.142Zm7.996 0h-3.426a1.146 1.146 0 0 1-1.143-1.142c0-.628.514-1.142 1.143-1.142h3.426v2.284Z"/><g opacity=".5"><path fill="#E1E8ED" d="M203.992 588h38.838v54.83h-38.838V588Z"/><path fill="#99AAB5" d="M203.992 615.415h38.838v27.415h-38.838v-27.415Z"/><path fill="#CCD6DD" d="M203.992 642.83c8.832 0 15.992-12.274 15.992-27.415S212.824 588 203.992 588 188 600.274 188 615.415s7.16 27.415 15.992 27.415Z"/><path fill="#E1E8ED" d="M242.83 642.83c10.094 0 18.277-12.274 18.277-27.415S252.924 588 242.83 588c-10.094 0-18.277 12.274-18.277 27.415s8.183 27.415 18.277 27.415Z"/><path fill="#E1E8ED" d="M261.107 615.415v27.415c0 20.561 9.138 27.415 9.138 27.415h-41.122s-9.139-6.854-9.139-27.415v-29.7l41.123 2.285Z"/><path fill="#F5F8FA" d="M261.107 615.415c0-11.249-4.521-20.904-10.982-25.13h-36.259c5.088 5.218 8.403 14.429 8.403 25.13v31.984c.98 12.983 6.129 18.962 7.729 20.561h38.077c-2.703-3.436-6.968-11.078-6.968-25.13v-27.415Z"/><path fill="#99AAB5" d="M201.707 626.838c3.785 0 6.854-5.114 6.854-11.423s-3.069-11.423-6.854-11.423-6.853 5.114-6.853 11.423 3.068 11.423 6.853 11.423Z"/><path fill="#66757F" d="M195.425 610.869c1.055-4.044 3.468-6.877 6.282-6.877 3.786 0 6.854 5.115 6.854 11.423 0 1.407-.173 2.741-.452 3.987-1.483-4.771-6.559-8.321-12.684-8.533Z"/><path fill="#CCD6DD" d="M225.695 617.699h-3.426v-2.284h3.426c.629 0 1.143.514 1.143 1.142 0 .628-.514 1.142-1.143 1.142Zm9.139 0h-4.569a1.146 1.146 0 0 1-1.143-1.142c0-.628.514-1.142 1.143-1.142h4.569c.628 0 1.142.514 1.142 1.142 0 .628-.514 1.142-1.142 1.142Zm9.138 0h-4.569a1.145 1.145 0 0 1-1.142-1.142c0-.628.514-1.142 1.142-1.142h4.569c.628 0 1.142.514 1.142 1.142 0 .628-.514 1.142-1.142 1.142Zm9.138 0h-4.569a1.145 1.145 0 0 1-1.142-1.142c0-.628.514-1.142 1.142-1.142h4.569c.629 0 1.143.514 1.143 1.142 0 .628-.514 1.142-1.143 1.142Zm7.996 0h-3.426a1.146 1.146 0 0 1-1.143-1.142c0-.628.514-1.142 1.143-1.142h3.426v2.284Zm-35.411 27.415h-3.426v-2.284h3.426c.629 0 1.143.514 1.143 1.142 0 .628-.514 1.142-1.143 1.142Zm9.139 0h-4.569a1.146 1.146 0 0 1-1.143-1.142c0-.628.514-1.142 1.143-1.142h4.569c.628 0 1.142.514 1.142 1.142 0 .628-.514 1.142-1.142 1.142Zm9.138 0h-4.569a1.145 1.145 0 0 1-1.142-1.142c0-.628.514-1.142 1.142-1.142h4.569c.628 0 1.142.514 1.142 1.142 0 .628-.514 1.142-1.142 1.142Zm9.138 0h-4.569a1.145 1.145 0 0 1-1.142-1.142c0-.628.514-1.142 1.142-1.142h4.569c.629 0 1.143.514 1.143 1.142 0 .628-.514 1.142-1.143 1.142Zm7.996 0h-3.426a1.146 1.146 0 0 1-1.143-1.142c0-.628.514-1.142 1.143-1.142h3.426v2.284Z"/></g><path fill="#CCD6DD" d="M1126.66 485.269c0-14.26-10.08-22.818-22.68-22.818s-22.47 8.558-22.47 22.818c0 7.95-.23 14.816 8.9 18.025v6.219c0 2.362 2.21 4.277 4.57 4.277 2.37 0 4.57-1.915 4.57-4.277v-4.501 4.501c0 2.362 2.21 4.277 4.57 4.277 2.37 0 4.57-1.915 4.57-4.277v-4.501 4.501c0 2.362 2.21 4.277 4.57 4.277 2.36 0 4.57-1.915 4.57-4.277v-6.219c9.14-3.209 8.83-10.075 8.83-18.025Z"/><path fill="#292F33" d="M1094.14 489.548c3.93 0 7.13-3.192 7.13-7.13 0-3.938-3.2-7.13-7.13-7.13a7.128 7.128 0 0 0-7.13 7.13c0 3.938 3.19 7.13 7.13 7.13Zm27.09-7.13c0 3.939 0 7.13-7.13 7.13s-7.13-3.191-7.13-7.13 3.19-7.13 7.13-7.13 7.13 3.191 7.13 7.13Zm-14.4 12.921c-.35-.872-1.43-1.512-2.71-1.512s-2.36.64-2.72 1.512a2.13 2.13 0 0 0-1.56 2.052 2.14 2.14 0 0 0 2.14 2.138c.93 0 1.72-.6 2.01-1.434.04 0 .08.009.13.009.04 0 .08-.009.13-.009a2.131 2.131 0 0 0 2.01 1.434 2.14 2.14 0 0 0 2.14-2.138c0-.98-.67-1.796-1.57-2.052Z"/><path fill="#AAB8C2" d="M1088.13 508.684c0-.839.17-1.629.45-2.372-2.25-1.021-4.19-2.472-5.72-4.5a588.647 588.647 0 0 1-7.15 6.157 7.89 7.89 0 0 0-4.71-1.57c-4.42 0-8 3.578-8 7.996 0 4.062 3.04 7.377 6.96 7.891.51 3.923 3.83 6.959 7.89 6.959 4.42 0 8-3.578 8-7.996 0-1.771-.6-3.393-1.57-4.718 1.37-1.613 2.85-3.335 4.41-5.14a6.796 6.796 0 0 1-.56-2.707Zm38.55-35.37c2.02-1.757 3.95-3.416 5.74-4.942a7.923 7.923 0 0 0 4.6 1.474c4.42 0 8-3.58 8-7.996 0-3.982-2.92-7.258-6.73-7.868-.5-3.932-3.83-6.982-7.89-6.982-4.42 0-8 3.58-8 7.996 0 1.771.59 3.393 1.57 4.718a672.622 672.622 0 0 1-4.37 5.087c2.97 1.99 5.4 4.787 7.08 8.513Zm-55.68-3.468a7.89 7.89 0 0 0 4.71-1.57c1.83 1.552 3.8 3.242 5.86 5.036 1.68-3.727 4.1-6.523 7.07-8.513-1.55-1.784-3-3.488-4.36-5.085.97-1.325 1.57-2.947 1.57-4.718a7.997 7.997 0 0 0-8-7.996c-4.06 0-7.38 3.038-7.89 6.959-3.92.514-6.96 3.829-6.96 7.891a7.997 7.997 0 0 0 8 7.996Zm66.02 36.553c-1.72 0-3.3.553-4.6 1.474a562.3 562.3 0 0 1-7.03-6.061c-1.54 2.031-3.48 3.479-5.72 4.503.27.74.44 1.53.44 2.369 0 .961-.2 1.875-.56 2.707a578.45 578.45 0 0 1 4.42 5.14 7.896 7.896 0 0 0-1.57 4.718 7.996 7.996 0 0 0 8 7.996c4.06 0 7.39-3.048 7.89-6.982 3.81-.61 6.73-3.886 6.73-7.868a7.996 7.996 0 0 0-8-7.996Z"/><path fill="#D99E82" d="m1048.53 120.732 42.2-42.203c7.37-7.372 19.33-7.372 26.7 0 7.37 7.373 7.37 19.328 0 26.7l-42.2 42.203c-7.37 7.373-19.33 7.373-26.7 0-7.37-7.374-7.37-19.327 0-26.7Z"/><path fill="#C1694F" d="M1051.89 132.971c1.22 0 2.22-.994 2.22-2.221a2.226 2.226 0 0 0-4.45 0c0 1.227 1 2.221 2.23 2.221Zm6.66 6.662c1.23 0 2.22-.995 2.22-2.221s-.99-2.221-2.22-2.221c-1.23 0-2.22.995-2.22 2.221s.99 2.221 2.22 2.221Zm6.66 6.664c1.23 0 2.22-.994 2.22-2.221 0-1.226-.99-2.22-2.22-2.22-1.23 0-2.22.994-2.22 2.22 0 1.227.99 2.221 2.22 2.221Zm-6.66-19.99c1.23 0 2.22-.994 2.22-2.221 0-1.226-.99-2.221-2.22-2.221-1.23 0-2.22.995-2.22 2.221 0 1.227.99 2.221 2.22 2.221Zm6.66 6.664c1.23 0 2.22-.994 2.22-2.221 0-1.226-.99-2.22-2.22-2.22-1.23 0-2.22.994-2.22 2.22 0 1.227.99 2.221 2.22 2.221Zm6.67 6.662c1.22 0 2.22-.995 2.22-2.221a2.225 2.225 0 0 0-4.45 0c0 1.226 1 2.221 2.23 2.221Zm20-51.351a2.222 2.222 0 0 1 4.41.53 2.222 2.222 0 0 1-4.41-.53Zm8.87 9.15c1.23 0 2.22-.994 2.22-2.22 0-1.227-.99-2.221-2.22-2.221-1.23 0-2.22.994-2.22 2.22 0 1.227.99 2.22 2.22 2.22Zm6.66 6.664c1.23 0 2.22-.994 2.22-2.221 0-1.226-.99-2.22-2.22-2.22-1.22 0-2.22.994-2.22 2.22 0 1.227 1 2.221 2.22 2.221Zm-6.66-19.99c1.23 0 2.22-.994 2.22-2.22 0-1.227-.99-2.221-2.22-2.221-1.23 0-2.22.994-2.22 2.22 0 1.227.99 2.221 2.22 2.221Zm6.66 6.664c1.23 0 2.22-.994 2.22-2.22 0-1.227-.99-2.221-2.22-2.221-1.22 0-2.22.994-2.22 2.22 0 1.227 1 2.221 2.22 2.221Zm6.67 6.662c1.22 0 2.22-.994 2.22-2.22 0-1.227-1-2.221-2.22-2.221-1.23 0-2.22.994-2.22 2.22 0 1.227.99 2.22 2.22 2.22Z"/><path fill="#EABAA7" d="m1057.44 111.87 24.43-24.433 26.65 26.654-24.43 24.431-26.65-26.652Z"/><path fill="#F7DED5" d="M1064.25 113.947c-.57 0-1.14-.217-1.57-.651a2.216 2.216 0 0 1 0-3.141l17.62-17.626a2.218 2.218 0 0 1 3.14 0c.87.868.87 2.273 0 3.142l-17.62 17.625c-.44.436-1.01.651-1.57.651Z"/><path fill="#FFE8B6" d="M765.254 254.277a9.139 9.139 0 0 0 9.138-9.139 9.138 9.138 0 0 0-9.138-9.138 9.138 9.138 0 0 0-9.138 9.138 9.139 9.139 0 0 0 9.138 9.139Z"/><path fill="#FFD983" d="M765.254 251.992a6.854 6.854 0 1 0 0-13.708 6.854 6.854 0 0 0 0 13.708Z"/><path fill="#FFCC4D" d="m773.25 237.142-9.611 6.381 3.23 3.231 6.381-9.612Zm-15.992 15.992 6.381-9.611 3.23 3.231-9.611 6.38Z"/><path fill="#FFCC4D" d="m773.25 253.134-6.381-9.611-3.23 3.23 9.611 6.381Z"/><path fill="#FFCC4D" d="m757.258 237.142 9.611 6.381-3.23 3.231-6.381-9.612Z"/><path fill="#C1694F" d="M751.547 266.842c-.327 0-.651-.14-.878-.411a1.147 1.147 0 0 1 .144-1.611c13.043-10.868 13.297-19.604 13.297-19.691.006-.628.477-1.22 1.149-1.133.63.007 1.137.514 1.137 1.142 0 .396-.159 9.808-14.118 21.439a1.137 1.137 0 0 1-.731.265Z"/><path fill="#DD2E44" d="m710.027 316.913-9.694-9.693c-1.777-1.778-1.777-4.686 0-6.461l43.617-43.617c1.778-1.778 4.686-1.778 6.461 0l9.694 9.693c1.777 1.777 1.777 4.686 0 6.461l-43.618 43.617c-1.775 1.775-4.683 1.775-6.46 0Z"/><path fill="#FFCC4D" d="m740.72 260.372 16.154 16.152-4.846 4.848-16.154-16.154 4.846-4.846Zm-32.307 32.308 16.152 16.152-4.843 4.848-16.157-16.152 4.848-4.848Z"/><path fill="#EA596E" d="m750.413 257.141 3.231 3.231-6.461 6.461-3.233-3.231 6.463-6.461Zm-43.617 43.618 3.231 3.23-6.461 6.461-3.231-3.231 6.461-6.46Zm32.309-32.309 3.23 3.231-27.46 27.46-3.233-3.23 27.463-27.461Z"/><path fill="#FFD983" d="m743.95 263.602 3.233 3.231-4.848 4.848-3.231-3.233 4.846-4.846Zm-32.306 32.309 3.23 3.233-4.848 4.843-3.23-3.228 4.848-4.848Z"/><path fill="#DD2E44" d="M415.537 507.913c-18.522 3.266-30.889 20.929-27.624 39.451 3.266 18.521 20.929 30.889 39.451 27.623 18.521-3.266 30.889-20.929 27.623-39.45-3.266-18.522-20.929-30.889-39.45-27.624Zm30.134 29.266c.843 4.779.223 9.47-1.503 13.646l-39.295-27.515a24.439 24.439 0 0 1 12.306-6.081c13.378-2.359 26.134 6.575 28.492 19.95Zm-48.442 8.542a24.44 24.44 0 0 1 1.506-13.644l39.294 27.514a24.46 24.46 0 0 1-12.308 6.08c-13.376 2.359-26.133-6.573-28.492-19.95Z"/><path fill="#DD2E44" d="M1011.54-36.087c-18.525 3.266-30.892 20.929-27.627 39.45 3.266 18.522 20.927 30.89 39.447 27.624 18.53-3.266 30.89-20.929 27.63-39.45-3.27-18.522-20.93-30.89-39.45-27.624Zm30.13 29.266c.84 4.78.22 9.47-1.5 13.646l-39.3-27.515a24.44 24.44 0 0 1 12.31-6.08c13.38-2.36 26.13 6.574 28.49 19.95Zm-48.441 8.542a24.44 24.44 0 0 1 1.506-13.644l39.295 27.514a24.452 24.452 0 0 1-12.31 6.08c-13.37 2.358-26.132-6.573-28.491-19.95Z" opacity=".35"/><path fill="#DD2E44" d="M934.929 512.543c-1.926 18.708-18.655 32.313-37.363 30.386-18.709-1.927-32.313-18.655-30.387-37.364 1.927-18.708 18.656-32.313 37.364-30.386 18.708 1.927 32.313 18.655 30.386 37.364Z"/><path fill="#fff" d="M927.014 515.531a3.786 3.786 0 0 1-4.152 3.377l-45.166-4.652a3.785 3.785 0 0 1-3.376-4.151l.775-7.528a3.785 3.785 0 0 1 4.151-3.376l45.167 4.651a3.786 3.786 0 0 1 3.376 4.152l-.775 7.527Z"/><path fill="#FFCC4D" d="M685.991 119.525c-3.432-.606-4.505-3.365-2.388-6.133l38.956-50.869c2.119-2.767 4.707-2.31 5.751 1.014l19.208 61.127c1.047 3.324-.907 5.549-4.339 4.944l-57.188-10.083Z"/><path fill="#231F20" d="M712.068 112.506a4.58 4.58 0 0 1 5.302-3.71 4.58 4.58 0 0 1 3.71 5.299 4.583 4.583 0 0 1-5.299 3.713 4.583 4.583 0 0 1-3.713-5.302Zm6.357-34.022c.427-2.425 2.483-3.611 4.851-3.194 2.312.408 3.885 2.293 3.467 4.661l-3.921 22.243c-.418 2.368-2.541 3.601-4.853 3.194-2.368-.418-3.894-2.237-3.466-4.661l3.922-22.243Z"/><g opacity=".5"><path fill="#F4900C" d="M786.514 646.029c17.599-2.404 29.918-18.619 27.514-36.218-2.403-17.6-18.618-29.918-36.218-27.515-17.599 2.403-29.918 18.619-27.514 36.218 2.403 17.599 18.618 29.918 36.218 27.515Z"/><path fill="#fff" d="m777.969 621.605-5.571 13.033c.568.272 1.143.531 1.733.754a22.562 22.562 0 0 0 11.103 1.264 22.581 22.581 0 0 0 10.383-4.213 23.33 23.33 0 0 0 1.468-1.191l-8.872-11.061c-1.281 1.288-2.953 2.202-4.891 2.467-1.929.263-3.778-.164-5.353-1.053Zm-.386-14.669-8.869-11.057c-.508.375-.995.777-1.467 1.193-5.328 4.665-8.366 11.727-7.658 19.22.028.313.036.625.079.942.043.317.119.62.175.931l14.045-1.918c-.076-.307-.178-.604-.221-.924-.468-3.429 1.174-6.645 3.916-8.387Zm13.074 6.066c.044.321.026.635.034.95l14.046-1.918c-.03-.315-.038-.627-.081-.943-.043-.317-.119-.62-.175-.931-1.327-7.407-6.144-13.394-12.524-16.46a23.416 23.416 0 0 0-1.734-.756l-5.572 13.033c3.101.947 5.538 3.601 6.006 7.025Zm-7.983 4.909a3.783 3.783 0 1 0-1.023-7.497 3.783 3.783 0 0 0 1.023 7.497Z"/></g><path fill="#DD2E44" d="m464.96 385.22 23.148-23.146a4.73 4.73 0 0 0 0-6.688 4.727 4.727 0 0 0-6.688 0l-23.148 23.146-23.145-23.146a4.727 4.727 0 0 0-6.688 0 4.727 4.727 0 0 0 0 6.688l23.146 23.146-23.199 23.2a4.727 4.727 0 0 0 3.345 8.073 4.716 4.716 0 0 0 3.345-1.385l23.198-23.201 23.146 23.146a4.716 4.716 0 0 0 3.345 1.385 4.73 4.73 0 0 0 3.345-8.073l-23.15-23.145Z"/><path fill="#BE1931" d="M999.956 371.047a5.675 5.675 0 0 1-3.82-7.059l2.158-7.253a5.674 5.674 0 0 1 7.056-3.821c1.1.314 11.42 1.425 13.58-5.828 1.08-3.627-1.47-8.333-6.91-9.952-4.42-1.317-8.33 1.468-8.87 3.281a5.676 5.676 0 0 1-10.878-3.238c2.633-8.845 13.158-13.848 22.988-10.923 14.51 4.318 16.72 16.784 14.01 25.883-2.24 7.516-8.07 12.032-16.44 12.713-1.82.151-3.56.099-5.1-.041l-.71 2.417a5.684 5.684 0 0 1-7.064 3.821Zm-4.317 14.506a5.681 5.681 0 0 0 7.061-3.821 5.677 5.677 0 1 0-7.061 3.821Zm-27.199-8.096a5.676 5.676 0 1 0 3.239-10.88 5.676 5.676 0 0 0-3.239 10.88Zm11.377-18.327a5.676 5.676 0 1 1-10.88-3.238l10.254-34.452a5.676 5.676 0 0 1 10.88 3.238l-10.254 34.452ZM875.664 132.481a5.676 5.676 0 1 0-2.2-11.136 5.676 5.676 0 0 0 2.2 11.136Zm1.536-21.517a5.675 5.675 0 1 1-11.136 2.2L859.1 77.899a5.676 5.676 0 1 1 11.136-2.2l6.964 35.265Zm24.448 16.385a5.676 5.676 0 1 0-2.2-11.137 5.676 5.676 0 0 0 2.2 11.137Zm1.537-21.516a5.676 5.676 0 1 1-11.136 2.199l-6.965-35.265a5.677 5.677 0 0 1 11.137-2.199l6.964 35.265Z"/><path fill="#BE1931" d="M173.431 31.069a5.676 5.676 0 1 0-1.971-11.18 5.676 5.676 0 0 0 1.971 11.18Zm1.976-21.48a5.676 5.676 0 0 1-11.179 1.97l-6.242-35.4a5.676 5.676 0 0 1 11.179-1.97l6.242 35.4Zm24.108 16.881a5.676 5.676 0 1 0-1.972-11.18 5.676 5.676 0 0 0 1.972 11.18Zm1.975-21.48a5.676 5.676 0 0 1-11.178 1.97l-6.242-35.4a5.676 5.676 0 0 1 11.178-1.97l6.242 35.4Z" opacity=".35"/><path fill="#BE1931" d="M256.397 120.535a5.674 5.674 0 0 1-4.604-6.575l1.314-7.452a5.676 5.676 0 0 1 6.575-4.604c1.125.187 11.507.108 12.821-7.345.657-3.726-2.412-8.11-8.001-9.095-4.548-.802-8.11 2.412-8.439 4.276a5.675 5.675 0 1 1-11.178-1.972c1.602-9.088 11.49-15.263 21.588-13.483 14.905 2.628 18.529 14.76 16.881 24.109-1.362 7.722-6.645 12.877-14.879 14.512a29.518 29.518 0 0 1-5.065.542l-.438 2.484a5.675 5.675 0 0 1-6.575 4.603Zm-2.629 14.906a5.676 5.676 0 1 0 1.97-11.18 5.676 5.676 0 0 0-1.97 11.18Z"/><path fill="#FFCC4D" fill-opacity=".8" d="M43.6 505.2c0 5.743-4.657 10.4-10.4 10.4h-72.8c-5.743 0-10.4-4.657-10.4-10.4v-20.8c0-5.743 4.657-10.4 10.4-10.4h72.8c5.743 0 10.4 4.657 10.4 10.4v20.8Z"/><path fill="#292F33" fill-opacity=".8" d="M-34.4 474h-5.2c-5.743 0-10.4 4.657-10.4 10.4v5.2l15.6-15.6Zm15.6 0L-50 505.2c0 3.536 1.773 6.651 4.472 8.528L-5.8 474h-13Zm-13 41.6h13L22.8 474h-13l-41.6 41.6Zm41.6 0 33.52-33.519a10.387 10.387 0 0 0-5.856-7.145L-3.2 515.6h13Zm33.8-10.4v-7.8l-18.2 18.2h7.8c5.743 0 10.4-4.657 10.4-10.4Z"/><path fill="#99AAB5" fill-opacity=".8" d="M-39.6 515.6h13V552h-13v-36.4Zm59.8 0h13V552h-13v-36.4Z"/><path fill="#DD2E44" d="M94.598 117.751 77.434 72.917a5.498 5.498 0 0 0-6.519-3.356l-36.374 9.463a5.5 5.5 0 0 0-4.052 6.155l7.282 47.355 56.827-14.783Z"/><path fill="#BE1931" d="M63.665 115.525c9.14-2.378 14.62-11.714 12.243-20.853-2.377-9.14-11.713-14.62-20.853-12.243-9.139 2.377-14.62 11.713-12.243 20.853 2.378 9.139 11.714 14.62 20.853 12.243Z"/><path fill="#99AAB5" d="m97.171 117.776-61.913 16.106 1.369 8.736c.92 3.534 4.453 2.615 4.453 2.615l56.538-14.708s3.534-.919 2.615-4.453l-3.062-8.296Z"/><path fill="#CCD6DD" d="m97.637 119.036-.465-1.26c-.588-1.239-1.903-1.731-3.23-1.386l-56.538 14.708c-1.327.345-2.235 1.415-2.145 2.784l.207 1.327 62.171-16.173Z"/><path fill="#EC9DAD" d="M79.646 93.002 65.525 94.32l5.12-13.231a.685.685 0 0 0-1.164-.684l-9.062 10.918-5.727-12.974a.685.685 0 0 0-1.307.34l1.319 14.12-13.231-5.118a.685.685 0 0 0-.684 1.165l10.917 9.059-12.974 5.729a.683.683 0 0 0-.385.798.683.683 0 0 0 .725.509l14.122-1.319-5.119 13.231a.685.685 0 0 0 1.164.684l9.06-10.917 5.729 12.972a.683.683 0 0 0 1.307-.34l-1.32-14.119 13.23 5.118a.69.69 0 0 0 .838-.291.685.685 0 0 0-.154-.873l-10.917-9.06 12.974-5.729a.683.683 0 0 0 .385-.798.683.683 0 0 0-.725-.51Z"/></g><defs><clipPath id="a"><path fill="#fff" d="M0 0h1200v620H0z"/></clipPath></defs></svg>