<svg xmlns="http://www.w3.org/2000/svg" width="878" height="172" fill="none"><path fill="#000" fill-rule="evenodd" d="m83.008 168 4.865-39.6H56.42L51.497 168H25.8l4.922-39.6H.94v-26.06h33.02l4.062-32.68H7.98V43.6h33.28L46.183 4H71.88l-4.922 39.6h31.334L103.156 4h25.695l-4.865 39.6h29.733v26.06h-32.935l-4.015 32.68h29.91v26.06h-33.112l-4.865 39.6H83.008Zm26.137-44.6h32.535v-16.06h-30.562l5.244-42.68h32.358V48.6h-30.385L123.2 9h-15.62l-4.865 39.6H61.298L66.22 9H50.6l-4.922 39.6H12.98v16.06h30.702l-5.304 42.68H5.94v16.06h30.442L31.46 163h15.62l4.922-39.6h41.523L88.66 163h15.62l4.865-39.6Zm-13.647-16.06 5.244-42.68h-41.44l-5.304 42.68h41.5Zm-4.423-5 4.015-32.68H63.72l-4.062 32.68h31.417ZM165.087 168V4h43.211l60.629 73.195V4h52.68v164h-43.21l-60.63-73.195V168h-52.68Zm47.68-87.07 67.98 82.07h35.86V9h-42.68v82.07L205.947 9h-35.86v154h42.68V80.93Zm177.687-12.31h68.42v32.56h-68.42v28.16h80.52V163h-123.64V9h120.78v33.66h-77.66v25.96Zm5-20.96h77.66V4h-130.78v164h133.64v-43.66h-80.52v-18.16h68.42V63.62h-68.42V47.66ZM527.423 168 474.24 4h55.424l27.434 87.041L585.968 4h47.322l27.521 87.777L689.345 4h52.09l-53.182 164h-53.944l-25.935-82.446L581.319 168h-53.896Zm81.052-98.79L637.978 163h46.64l49.94-154h-41.58l-32.253 99.215L629.618 9h-40.04l-32.601 98.289-30.979-98.29h-44.88L531.058 163h46.64l30.777-93.79Zm157.985 97.077-.036-.01c-11.937-3.325-21.939-7.623-29.85-13.002l-3.456-2.351 18.362-41.244 4.896 3.125c6.479 4.136 13.993 7.629 22.58 10.448 8.633 2.641 17.145 3.947 25.55 3.947 5.733 0 10.039-.491 13.084-1.331 3.236-1.045 4.907-2.156 5.67-2.988l.006-.006.006-.006c.945-1.025 1.314-2.028 1.314-3.209 0-1.641-.591-2.911-2.525-4.142-2.648-1.685-6.295-3.2-11.101-4.436-5.046-1.297-10.691-2.6-16.939-3.908l-.011-.003-.012-.002c-6.338-1.358-12.738-3.091-19.2-5.195l-.017-.005-.017-.006c-6.512-2.17-12.525-4.976-18.019-8.43l-.043-.027-.042-.028c-5.755-3.781-10.452-8.646-14.061-14.55l-.016-.027-.015-.026c-3.805-6.399-5.542-14.167-5.542-23.015 0-10.198 2.769-19.528 8.319-27.854l.019-.028.019-.027c5.757-8.39 14.183-14.933 24.953-19.772 10.953-4.92 24.317-7.26 39.89-7.26 10.495 0 20.777 1.217 30.835 3.651 10.233 2.295 19.432 5.76 27.543 10.439l3.802 2.193-17.224 41.508-4.872-2.63c-7.028-3.796-13.923-6.573-20.687-8.367l-.045-.012-.046-.013c-6.788-1.94-13.291-2.888-19.526-2.888-5.715 0-9.915.636-12.827 1.684l-.084.03-.086.028c-3.142 1.005-4.744 2.19-5.512 3.167-.913 1.162-1.351 2.418-1.351 3.95 0 1.49.523 2.7 2.286 3.909 2.667 1.554 6.302 2.985 11.04 4.21a2322.21 2322.21 0 0 0 17.032 3.711 172.788 172.788 0 0 1 19.176 5.185c6.69 2.03 12.816 4.85 18.35 8.48 5.812 3.663 10.462 8.572 13.925 14.649 3.801 6.256 5.531 13.876 5.531 22.557 0 9.966-2.877 19.216-8.545 27.641-5.616 8.42-13.985 14.974-24.753 19.814-10.825 4.932-24.201 7.265-39.902 7.265-13.025 0-25.626-1.591-37.79-4.784l-.036-.009Zm75.666-7.027c10.12-4.547 17.673-10.56 22.66-18.04 5.133-7.627 7.7-15.913 7.7-24.86 0-8.067-1.614-14.74-4.84-20.02-3.08-5.427-7.187-9.753-12.32-12.98-5.134-3.373-10.854-6.013-17.16-7.92a167.836 167.836 0 0 0-18.7-5.06 2325.03 2325.03 0 0 1-17.16-3.74c-5.134-1.32-9.314-2.933-12.54-4.84-3.08-2.053-4.62-4.767-4.62-8.14 0-2.64.806-4.987 2.42-7.04 1.613-2.053 4.253-3.667 7.92-4.84 3.666-1.32 8.506-1.98 14.52-1.98 6.746 0 13.713 1.027 20.9 3.08 5.725 1.519 11.497 3.69 17.316 6.512 1.485.72 2.973 1.483 4.464 2.288l13.42-32.34c-7.627-4.4-16.354-7.7-26.18-9.9-9.68-2.347-19.58-3.52-29.7-3.52-15.107 0-27.72 2.273-37.84 6.82-10.12 4.547-17.747 10.56-22.88 18.04-4.987 7.48-7.48 15.84-7.48 25.08 0 8.213 1.613 15.033 4.84 20.46 3.226 5.28 7.406 9.607 12.54 12.98 5.133 3.227 10.78 5.867 16.94 7.92a186.863 186.863 0 0 0 18.7 5.06c6.306 1.32 12.026 2.64 17.16 3.96 5.133 1.32 9.313 3.007 12.54 5.06 3.226 2.053 4.84 4.84 4.84 8.36 0 2.493-.88 4.693-2.64 6.6-1.614 1.76-4.254 3.227-7.92 4.4-3.667 1.027-8.507 1.54-14.52 1.54-8.947 0-17.967-1.393-27.06-4.18-7.132-2.338-13.612-5.143-19.439-8.413a88.877 88.877 0 0 1-4.321-2.587l-14.3 32.12c7.333 4.987 16.793 9.093 28.38 12.32 11.733 3.08 23.906 4.62 36.52 4.62 15.253 0 27.866-2.273 37.84-6.82Z" clip-rule="evenodd"/></svg>