<svg xmlns="http://www.w3.org/2000/svg" width="1187" height="219" fill="none"><path fill="#000" fill-rule="evenodd" d="m32.7 163.499-.018-.016c-9.887-8.865-14.422-21.869-14.422-38.043V90.4H.88V49.16h17.38V18.14h51.8v31.02h27.28V90.4H70.06V125c0 3.259.862 5.284 2.11 6.638 1.299 1.273 2.971 2.002 5.43 2.002 4.118 0 7.321-1.015 9.87-2.82l5.4-3.825 13.84 39.167-3.237 2.158c-4.159 2.773-9.106 4.663-14.705 5.789-5.5 1.252-11.205 1.871-17.108 1.871-16.043 0-29.247-3.94-38.942-12.465l-.018-.016Zm55.02 5.721c5.133-1.027 9.46-2.713 12.98-5.06L90.36 134.9a19.309 19.309 0 0 1-4.47 2.355c-2.492.923-5.255 1.385-8.29 1.385-3.667 0-6.673-1.173-9.02-3.52-2.347-2.493-3.52-5.867-3.52-10.12V85.4h27.28V54.16H65.06V23.14h-41.8v31.02H5.88V85.4h17.38v40.04c0 15.253 4.253 26.693 12.76 34.32 8.507 7.48 20.387 11.22 35.64 11.22 5.573 0 10.927-.587 16.06-1.76Zm75.898-112.393a43.395 43.395 0 0 1 4.02-2.447c7.92-4.4 16.867-6.6 26.84-6.6 9.24 0 17.6 1.907 25.08 5.72 7.48 3.667 13.347 9.387 17.6 17.16 4.4 7.773 6.6 17.82 6.6 30.14V169h-41.8v-61.38c0-8.507-1.76-14.667-5.28-18.48-3.373-3.96-8.14-5.94-14.3-5.94-4.4 0-8.433 1.027-12.1 3.08-2.637 1.371-4.857 3.312-6.66 5.822a22.91 22.91 0 0 0-1.456 2.314c-.159.289-.313.584-.464.884-2.053 4.107-3.08 9.46-3.08 16.06V169h-41.8V5.76h41.8v55.081a42.744 42.744 0 0 1 5-4.014Zm0-5.922a49.918 49.918 0 0 1 1.623-.913c8.728-4.842 18.515-7.212 29.237-7.212 9.935 0 19.074 2.053 27.317 6.248 8.44 4.146 15.025 10.61 19.732 19.2 4.944 8.751 7.231 19.716 7.231 32.572V174h-51.8v-66.38c0-8.006-1.689-12.635-3.954-15.089l-.067-.073-.065-.076c-2.246-2.636-5.501-4.182-10.494-4.182-3.586 0-6.772.827-9.657 2.442l-.067.038-.069.036c-2.628 1.367-4.778 3.547-6.415 6.82-1.588 3.176-2.552 7.684-2.552 13.824V174h-51.8V.76h51.8v50.145ZM337.822 174v-6.707a35.715 35.715 0 0 1-2.369 1.702l-.011.007-.012.008c-7.374 4.802-16.785 6.97-27.808 6.97-10.076 0-18.94-1.703-26.396-5.348-7.335-3.586-13.141-8.577-17.212-15.022l-.025-.04-.025-.041c-3.873-6.4-5.782-13.538-5.782-21.289 0-8.204 2.066-15.54 6.393-21.772l.008-.011.008-.012c4.531-6.448 11.259-11.089 19.745-14.138 8.534-3.212 19.226-4.707 31.866-4.707h17.629c-.76-1.914-1.879-3.42-3.283-4.624l-.073-.062-.07-.065c-2.603-2.41-7.453-4.169-15.743-4.169-5.156 0-10.428.858-15.835 2.615l-.054.018-.054.016c-5.369 1.61-9.771 3.843-13.308 6.623l-4.835 3.799-18.789-37.87 3.724-2.429c7.289-4.754 15.882-8.321 25.692-10.776 9.917-2.592 19.793-3.896 29.619-3.896 20.059 0 36.32 4.63 48.083 14.58 12.225 10.066 17.857 25.597 17.857 45.42V174h-48.94Zm-45.38-122.48c-9.387 2.347-17.453 5.72-24.2 10.12l14.08 28.38a38.396 38.396 0 0 1 4.169-2.847c3.186-1.886 6.783-3.43 10.791-4.633 5.867-1.907 11.66-2.86 17.38-2.86 8.8 0 15.18 1.833 19.14 5.5 2.57 2.203 4.336 5.01 5.298 8.42.435 1.543.705 3.21.811 5h-23.709c-12.32 0-22.367 1.467-30.14 4.4-7.773 2.787-13.567 6.893-17.38 12.32-3.667 5.28-5.5 11.587-5.5 18.92 0 6.893 1.687 13.127 5.06 18.7 3.52 5.573 8.58 9.973 15.18 13.2 6.6 3.227 14.667 4.84 24.2 4.84 10.413 0 18.773-2.053 25.08-6.16a29.93 29.93 0 0 0 5.12-4.244 30.002 30.002 0 0 0 5-6.996V169h38.94v-66.22c0-18.92-5.353-32.78-16.06-41.58-10.56-8.947-25.52-13.42-44.88-13.42-9.387 0-18.847 1.247-28.38 3.74Zm29.48 68.86c-6.747 0-11.513 1.1-14.3 3.3-2.64 2.2-3.96 5.133-3.96 8.8 0 3.667 1.393 6.6 4.18 8.8 2.787 2.2 6.6 3.3 11.44 3.3 4.547 0 8.653-1.1 12.32-3.3a18.896 18.896 0 0 0 5.196-4.718c1.282-1.688 2.336-3.635 3.164-5.842v-10.34h-18.04Zm13.04 5h-13.04c-6.422 0-9.724 1.092-11.153 2.187-1.381 1.172-2.107 2.646-2.107 4.913 0 2.195.738 3.659 2.278 4.876 1.632 1.288 4.221 2.224 8.342 2.224 3.689 0 6.889-.878 9.722-2.572 2.545-1.573 4.551-3.902 5.958-7.243v-4.385Zm118.004-67.11a43.076 43.076 0 0 1 6-3.89c7.92-4.4 16.867-6.6 26.84-6.6 9.24 0 17.6 1.907 25.08 5.72 7.48 3.667 13.347 9.387 17.6 17.16 4.4 7.773 6.6 17.82 6.6 30.14V169h-41.8v-61.38c0-8.507-1.76-14.667-5.28-18.48-3.373-3.96-8.14-5.94-14.3-5.94-4.4 0-8.433 1.027-12.1 3.08-3.666 1.907-6.526 4.913-8.58 9.02l-.06.121c-.28.57-.542 1.165-.784 1.784-1.49 3.813-2.236 8.532-2.236 14.155V169h-41.8V49.76h39.82v13.054a43.182 43.182 0 0 1 5-4.544Zm0-6.135a48.66 48.66 0 0 1 3.604-2.143c8.728-4.842 18.514-7.212 29.236-7.212 9.935 0 19.074 2.053 27.317 6.248 8.44 4.146 15.025 10.611 19.733 19.201 4.944 8.751 7.23 19.716 7.23 32.571V174h-51.8v-66.38c0-8.006-1.689-12.635-3.954-15.089l-.067-.073-.065-.076c-2.246-2.636-5.501-4.182-10.494-4.182-3.586 0-6.772.827-9.657 2.442l-.067.038-.069.036c-2.627 1.367-4.778 3.547-6.414 6.82-1.589 3.176-2.553 7.684-2.553 13.824V174h-51.8V44.76h49.82v7.375ZM603.13 91.28l42.68-41.521h49.5l-49.4 51.013L699.49 169h-50.6l-33.358-41.798-12.402 12.629V169h-41.8V5.76h41.8v85.521Zm5-11.84V.76h-51.8V174h51.8v-32.125l7.015-7.143L646.483 174h63.291l-57.236-72.884 54.574-56.356h-63.333L608.13 79.441Zm242.184 94.399c-4.107 10.267-8.874 18.26-14.3 23.98-5.28 5.867-11.22 9.973-17.82 12.32-6.454 2.347-13.64 3.52-21.56 3.52-6.307 0-12.687-1.027-19.14-3.08-6.307-1.907-11.44-4.473-15.4-7.7l14.52-29.26a26.043 26.043 0 0 0 4.108 2.97 27.45 27.45 0 0 0 4.472 2.09c3.373 1.32 6.673 1.98 9.9 1.98 4.546 0 8.14-1.027 10.78-3.08a16.5 16.5 0 0 0 2.214-2.094c.936-1.056 1.818-2.287 2.645-3.692.236-.402.468-.817.695-1.247L760.334 49.76h42.9l29.276 72.858 29.464-72.858h39.82l-51.48 124.08Zm-17.789-64.595L806.613 44.76H752.79l53.057 125.428c-1.016 1.549-2.044 2.668-3.043 3.445-1.494 1.162-3.88 2.027-7.71 2.027-2.532 0-5.215-.516-8.078-1.636l-.057-.022-.056-.021c-2.659-.967-4.972-2.338-6.981-4.11l-4.889-4.314-19.193 38.677 3.095 2.522c4.582 3.733 10.334 6.557 17.078 8.6 6.895 2.19 13.775 3.304 20.621 3.304 8.408 0 16.178-1.245 23.252-3.815 7.453-2.653 14.051-7.256 19.801-13.632 5.974-6.313 11.017-14.892 15.258-25.487l.011-.029L909.281 44.76h-50.679l-26.077 64.485Zm73.706 34.676-.024-.039c-6.242-10.244-9.31-21.867-9.31-34.722 0-12.854 3.068-24.418 9.329-34.532l.015-.024.015-.024c6.362-10.02 15.036-17.804 25.916-23.327 10.924-5.694 23.314-8.473 37.045-8.473 13.726 0 26.112 2.777 37.033 8.467 11.03 5.522 19.73 13.319 25.96 23.381 6.26 10.114 9.33 21.678 9.33 34.532 0 12.855-3.07 24.478-9.31 34.722l-.01.015-.01.015c-6.23 10.057-14.92 17.921-25.94 23.589-10.923 5.698-23.317 8.479-37.053 8.479-13.742 0-26.142-2.784-37.073-8.487-10.864-5.668-19.53-13.519-25.888-23.533l-.025-.039Zm28.226-88.22c-10.12 5.133-18.113 12.32-23.98 21.56-5.72 9.24-8.58 19.873-8.58 31.9 0 12.027 2.86 22.733 8.58 32.12 5.867 9.24 13.86 16.5 23.98 21.78 10.12 5.28 21.707 7.92 34.76 7.92 13.053 0 24.64-2.64 34.763-7.92 10.26-5.28 18.26-12.54 23.98-21.78 5.72-9.387 8.58-20.093 8.58-32.12 0-12.027-2.86-22.66-8.58-31.9-5.72-9.24-13.72-16.427-23.98-21.56-10.123-5.28-21.71-7.92-34.763-7.92-13.053 0-24.64 2.64-34.76 7.92Zm44.984 74.45.037-.021c2.904-1.675 5.263-4.15 7.062-7.615 1.774-3.563 2.757-7.962 2.757-13.354 0-5.422-.993-9.62-2.707-12.819l-.018-.032-.016-.032c-1.801-3.48-4.166-5.966-7.078-7.646l-.037-.022-.037-.021C976.613 86.913 973.273 86 969.217 86c-3.86 0-7.229.89-10.223 2.609-2.79 1.683-5.196 4.201-7.165 7.76-1.705 3.196-2.692 7.385-2.692 12.791 0 5.362.971 9.742 2.727 13.294 1.962 3.526 4.357 6.024 7.13 7.697 2.994 1.718 6.363 2.609 10.223 2.609 4.056 0 7.396-.913 10.187-2.587l.037-.023Zm-22.984 4.31c-3.667-2.2-6.673-5.427-9.02-9.68-2.2-4.4-3.3-9.607-3.3-15.62s1.1-11.073 3.3-15.18c2.347-4.253 5.353-7.48 9.02-9.68 3.813-2.2 8.067-3.3 12.76-3.3 4.84 0 9.093 1.1 12.76 3.3 3.813 2.2 6.82 5.427 9.02 9.68 2.2 4.107 3.3 9.167 3.3 15.18s-1.1 11.22-3.3 15.62c-2.2 4.253-5.207 7.48-9.02 9.68-3.667 2.2-7.92 3.3-12.76 3.3-4.693 0-8.947-1.1-12.76-3.3Zm121.203 35.281-.02-.009c-8.61-4.306-15.34-11.008-20.19-19.898l-.02-.047-.03-.048c-4.73-9.127-6.94-20.318-6.94-33.319V44.76h51.8v64.84c0 8.837 1.65 13.929 3.83 16.52 2.39 2.663 5.82 4.22 10.97 4.22 3.3 0 6.18-.756 8.76-2.213 2.35-1.328 4.42-3.505 6.11-6.871 1.62-3.359 2.57-7.967 2.57-14.076V44.76h51.8V174h-49.82v-6.671c-.86.567-1.75 1.108-2.66 1.622l-.03.018-.03.017c-8.53 4.667-17.79 6.994-27.7 6.994-10.35 0-19.85-2.044-28.38-6.231l-.02-.008Zm58.82-8.563a40.348 40.348 0 0 0 5-4.646V169h39.82V49.76h-41.8v57.42c0 5.866-.81 10.805-2.43 14.818-.19.457-.38.903-.59 1.337l-.06.125c-2.05 4.107-4.77 7.113-8.14 9.02-3.37 1.907-7.11 2.86-11.22 2.86-6.31 0-11.22-1.98-14.74-5.94-3.37-3.96-5.06-10.56-5.06-19.8V49.76h-41.8v66.66c0 12.467 2.13 22.807 6.38 31.02 4.4 8.067 10.41 14.007 18.04 17.82 7.77 3.813 16.5 5.72 26.18 5.72 9.09 0 17.53-2.127 25.3-6.38a41.077 41.077 0 0 0 5.12-3.422Z" clip-rule="evenodd"/></svg>